<?xml version="1.0" encoding="utf-8"?>
<!-- Generator: Adobe Illustrator 25.0.0, SVG Export Plug-In . SVG Version: 6.00 Build 0)  -->
<svg version="1.1" xmlns="http://www.w3.org/2000/svg" xmlns:xlink="http://www.w3.org/1999/xlink" x="0px" y="0px"
	 viewBox="0 0 750 500" style="enable-background:new 0 0 750 500;" xml:space="preserve">
<style type="text/css">
	.st0{display:none;}
	.st1{display:inline;}
	.st2{fill:#EBEBEB;}
	.st3{fill:#F5F5F5;}
	.st4{fill:#E0E0E0;}
	.st5{fill:#FFFFFF;}
	.st6{display:inline;fill:#E0E0E0;}
	.st7{display:inline;fill:#EBEBEB;}
	.st8{display:inline;fill:#F5F5F5;}
	.st9{fill:#263238;}
	.st10{fill:#455A64;}
	.st11{fill:#FAFAFA;}
	.st12{fill:#E8505B;}
	.st13{opacity:0.2;}
	.st14{fill:#B78876;}
	.st15{fill:#AA6550;}
	.st16{fill:#FFBE9D;}
	.st17{fill:#EB996E;}
	.st18{fill:none;stroke:#FFFFFF;stroke-width:0.05;stroke-miterlimit:10;}
	.st19{fill:#E07646;}
</style>
<g id="Background_Complete" class="st0">
	<g class="st1">
		<g>
			<path class="st2" d="M562.66,417.74c2.76-1.16,4.72-4,4.73-7.35c0.02-4.39-3.3-7.96-7.42-7.98c-4.11-0.02-7.46,3.52-7.48,7.91
				c-0.01,3.38,1.96,6.26,4.75,7.42c-11.46,1.73-10.94,14.18-10.94,14.18l27.1,0.12C573.4,432.05,574.02,419.46,562.66,417.74z"/>
		</g>
	</g>
	<g class="st1">
		<g>
			<path class="st2" d="M82.24,135.86c2.07-0.87,3.54-3,3.55-5.51c0.01-3.29-2.48-5.97-5.56-5.99c-3.09-0.01-5.6,2.64-5.61,5.93
				c-0.01,2.54,1.47,4.69,3.56,5.56c-8.6,1.3-8.21,10.64-8.21,10.64l20.34,0.09C90.3,146.6,90.76,137.15,82.24,135.86z"/>
		</g>
	</g>
	<g class="st1">
		<path class="st3" d="M565.57,103.58c0.31,13.71-10.56,25.08-24.27,25.38c-13.71,0.31-25.08-10.56-25.38-24.27
			c-0.31-13.71,10.56-25.08,24.27-25.38C553.9,79,565.27,89.87,565.57,103.58z"/>
		<path class="st4" d="M535.5,97.5c-0.92-1.2-2.67-1.23-3.83-0.35c-1.16,0.88-1.69,1.91-1.9,3.47c-0.28-1.55-0.95-2.55-2.16-3.38
			c-1.21-0.83-2.97-0.72-3.84,0.52c-0.51,0.73-0.65,1.72-0.51,2.63c0.14,0.91,0.42,1.86,1,2.53c2.05,2.38,3.15,2.79,5.75,4.46
			c2.51-1.78,3.31-2.23,5.24-4.7c0.54-0.69,0.78-1.65,0.88-2.57C536.22,99.2,536.04,98.21,535.5,97.5z"/>
		<path class="st4" d="M557.43,97.01c-0.92-1.2-2.67-1.23-3.83-0.35c-1.16,0.88-1.69,1.91-1.9,3.47c-0.28-1.55-0.95-2.55-2.16-3.38
			c-1.21-0.83-2.97-0.72-3.84,0.52c-0.51,0.73-0.65,1.72-0.51,2.63c0.14,0.91,0.42,1.86,1,2.53c2.05,2.38,3.15,2.79,5.75,4.46
			c2.51-1.78,3.31-2.23,5.24-4.7c0.54-0.69,0.78-1.65,0.88-2.57C558.15,98.71,557.97,97.72,557.43,97.01z"/>
		<path class="st5" d="M549.1,109.78c-0.29,4.07-4.05,7.58-8.13,7.6c-4.08,0.02-7.87-3.45-8.21-7.51L549.1,109.78z"/>
	</g>
	<g class="st1">
		
			<ellipse transform="matrix(0.1589 -0.9873 0.9873 0.1589 178.2767 964.6864)" class="st3" cx="655.33" cy="377.71" rx="25.43" ry="25.43"/>
		<path class="st4" d="M646.89,370.41c0.96-0.06,1.82,1.02,1.9,2.42c0.09,1.39-0.63,2.57-1.59,2.63c-0.97,0.06-1.82-1.02-1.9-2.42
			C645.22,371.65,645.93,370.47,646.89,370.41z"/>
		<g>
			<path class="st4" d="M649.26,364.02c-0.06,0.37-2.14,0.25-4.46,1.08c-2.34,0.78-3.91,2.15-4.18,1.9
				c-0.28-0.19,1.07-2.19,3.76-3.11C647.07,362.96,649.37,363.7,649.26,364.02z"/>
		</g>
		<g>
			<path class="st4" d="M667.7,374.38c-0.27,0.23-1.64-1.25-3.83-1.47c-2.19-0.25-3.84,0.9-4.06,0.62
				c-0.11-0.12,0.16-0.61,0.89-1.11c0.71-0.49,1.93-0.93,3.31-0.78c1.38,0.15,2.47,0.83,3.07,1.47
				C667.68,373.75,667.83,374.29,667.7,374.38z"/>
		</g>
		<g>
			<path class="st4" d="M669.89,370.13c-0.2,0.32-2.26-0.77-5.01-0.85c-2.75-0.14-4.89,0.78-5.06,0.44
				c-0.21-0.26,1.96-1.86,5.11-1.72C668.08,368.12,670.12,369.89,669.89,370.13z"/>
		</g>
		<g>
			<path class="st4" d="M668.09,377.2c0.11-0.01,0.14,2.11-1.59,4.89c-1.64,2.71-5.47,6-10.62,6.2c-5.16,0.12-9.18-2.92-10.99-5.53
				c-1.91-2.67-2.01-4.79-1.9-4.78c0.22-0.08,0.65,1.88,2.61,4.22c1.87,2.3,5.64,4.92,10.24,4.81c4.59-0.18,8.2-3.02,9.92-5.44
				C667.55,379.12,667.86,377.14,668.09,377.2z"/>
		</g>
	</g>
	<g class="st1">
		
			<ellipse transform="matrix(0.4746 -0.8802 0.8802 0.4746 -169.6596 173.8825)" class="st3" cx="60.82" cy="229.05" rx="25.24" ry="25.24"/>
		<g>
			<path class="st4" d="M52.11,222.69c0.96-0.08,1.82,0.98,1.94,2.36c0.11,1.38-0.57,2.56-1.53,2.64c-0.96,0.08-1.83-0.98-1.94-2.36
				C50.47,223.96,51.15,222.77,52.11,222.69z"/>
			<g>
				<path class="st4" d="M54.33,216.3c-0.02,0.22-2.13,0.02-4.5,0.91c-2.38,0.86-3.86,2.38-4.01,2.23
					c-0.16-0.09,1.18-1.97,3.76-2.91C52.15,215.57,54.4,216.13,54.33,216.3z"/>
			</g>
		</g>
		<g>
			<path class="st4" d="M68.16,222.36c-0.96-0.04-1.78,1.05-1.84,2.43c-0.06,1.38,0.67,2.54,1.63,2.58
				c0.96,0.04,1.78-1.05,1.84-2.44C69.85,223.56,69.12,222.4,68.16,222.36z"/>
			<g>
				<path class="st4" d="M65.68,216.07c-0.07-0.17,2.15-0.82,4.75,0.04c2.61,0.83,4.04,2.65,3.88,2.75c-0.15,0.16-1.69-1.3-4.1-2.06
					C67.81,216,65.71,216.28,65.68,216.07z"/>
			</g>
		</g>
		<g>
			<path class="st4" d="M73.27,228.8c0.04,0.01,0.02,0.49-0.18,1.35c-0.19,0.86-0.63,2.08-1.47,3.43c-0.83,1.35-2.11,2.79-3.85,3.98
				c-1.73,1.19-3.96,2.08-6.42,2.22c-2.45,0.11-4.77-0.54-6.61-1.55c-1.86-1-3.28-2.31-4.24-3.56c-0.97-1.26-1.54-2.42-1.81-3.25
				c-0.28-0.83-0.35-1.32-0.32-1.33c0.15-0.07,0.54,1.91,2.53,4.26c0.98,1.17,2.37,2.37,4.16,3.3c1.77,0.92,3.96,1.51,6.27,1.41
				c2.3-0.14,4.41-0.95,6.08-2.06c1.68-1.1,2.94-2.45,3.79-3.71C72.93,230.75,73.12,228.75,73.27,228.8z"/>
		</g>
	</g>
	<path class="st6" d="M278.52,262.83c-1.25-1.49-3.5-1.43-4.95-0.24c-1.44,1.2-2.07,2.55-2.25,4.57c-0.44-1.97-1.36-3.23-2.96-4.22
		c-1.6-1-3.86-0.75-4.91,0.89c-0.61,0.96-0.74,2.25-0.5,3.41c0.23,1.17,0.64,2.36,1.42,3.19c2.77,2.95,4.2,3.41,7.63,5.41
		c3.12-2.43,4.13-3.05,6.47-6.33c0.66-0.92,0.91-2.16,0.98-3.35C279.54,264.96,279.25,263.7,278.52,262.83z"/>
	<path class="st6" d="M643.32,69.43c-1.25-1.49-3.5-1.43-4.95-0.24s-2.07,2.55-2.25,4.57c-0.44-1.97-1.36-3.23-2.96-4.22
		c-1.6-1-3.86-0.75-4.91,0.89c-0.61,0.96-0.74,2.25-0.5,3.41c0.23,1.17,0.64,2.36,1.42,3.19c2.77,2.95,4.2,3.41,7.63,5.41
		c3.12-2.43,4.13-3.05,6.47-6.33c0.66-0.92,0.91-2.16,0.98-3.35C644.34,71.56,644.05,70.31,643.32,69.43z"/>
	<path class="st7" d="M544.71,348.6c-1.25-1.49-3.5-1.43-4.95-0.24c-1.44,1.2-2.07,2.55-2.25,4.57c-0.44-1.97-1.36-3.23-2.96-4.22
		c-1.6-1-3.86-0.75-4.91,0.89c-0.61,0.96-0.74,2.25-0.5,3.41c0.23,1.17,0.64,2.36,1.42,3.19c2.77,2.95,4.2,3.41,7.63,5.41
		c3.12-2.43,4.13-3.05,6.47-6.33c0.66-0.92,0.91-2.16,0.98-3.35C545.73,350.73,545.44,349.47,544.71,348.6z"/>
</g>
<g id="Background_Simple" class="st0">
	<path class="st8" d="M587.33,107.53l-2.74-4.46c-22.03-35.85-61.71-57.57-103.73-55.43c-5.91,0.3-11.79,1.06-17.59,2.28
		c-38.65,8.17-72.29,37.03-86.23,74c-8.2,21.74-10.49,46.77-26.05,64.03c-20.25,22.46-54.63,23.16-84.85,22.23
		c-30.23-0.93-64.63-0.14-84.78,22.41c-12.62,14.12-16.63,34.2-15.61,53.11c2.69,50.07,38.03,94.84,82.96,117.09
		c44.93,22.25,97.84,24.25,147.01,14.46c68.89-13.71,134.4-51.37,173.78-109.54C608.87,249.55,618.83,170.31,587.33,107.53z"/>
</g>
<g id="Character_3">
	<g>
		<path class="st4" d="M615.16,170.59c-25.29,0-47.66,12.46-61.35,31.55l-26.81,3.8l15.04,21.43c-1.52,5.97-2.33,12.22-2.33,18.67
			c0,41.67,33.78,75.45,75.45,75.45c41.67,0,75.45-33.78,75.45-75.45S656.83,170.59,615.16,170.59z"/>
		<g>
			<g>
				<g>
					<g>
						<path class="st9" d="M601.31,139.23c11.06-14.56,22.71-12.5,30.8-8.99c8.09,3.52,13.52,12.38,12.98,21.19
							c-0.14,2.33-0.64,4.77,0.31,6.9c1.52,3.43,5.95,4.39,8.51,7.12c3.5,3.74,2.73,9.66,1.54,14.64
							c-1.18,4.99-2.43,10.68,0.5,14.88c2.69,3.85,7.81,4.88,12.03,6.93c5.58,2.71,10.06,7.76,11.68,13.75
							c1.62,5.99,0.19,12.8-4,17.37c-4.1,4.47-10.27,6.45-16.27,7.34c-17.47,2.57-35.98-3.06-49.05-14.94
							c-13.07-11.88-20.45-29.76-19.55-47.4"/>
					</g>
				</g>
				<g>
					<g>
						<g>
							<path class="st10" d="M669.36,234.53c-0.03-0.03,0.38-0.36,1-1.12c0.62-0.75,1.46-1.97,1.97-3.76
								c0.51-1.78,0.62-4.11,0.06-6.69c-0.52-2.58-1.85-5.38-4.11-7.82c-1.13-1.21-2.46-2.34-4-3.3c-1.53-0.97-3.27-1.71-5.09-2.46
								c-1.82-0.75-3.75-1.51-5.57-2.64c-1.83-1.13-3.47-2.66-4.82-4.47c-2.73-3.63-4.16-8.37-4.27-13.25
								c-0.06-2.44,0.17-4.94,0.63-7.41c0.45-2.47,1.08-4.93,1.56-7.43c0.33-1.77,0.63-3.56,0.61-5.28
								c-0.04-1.74-0.52-3.41-1.16-5.01c-0.64-1.61-1.4-3.17-2-4.79c-0.59-1.66-0.85-3.35-1.04-5.01c-0.2-1.67-0.2-3.32-0.39-4.88
								c-0.16-1.58-0.48-3.11-0.89-4.59c-0.82-2.94-2.06-5.69-3.71-7.9l-0.02-0.03l0-0.01c-2.76-4.37-7.32-6.79-11.42-7.37
								c-4.17-0.62-7.84,0.63-10.38,2.17c-2.59,1.56-4.16,3.41-5.08,4.72c-0.92,1.33-1.26,2.13-1.31,2.11c0,0,0.27-0.83,1.15-2.21
								c0.89-1.36,2.44-3.28,5.05-4.92c2.56-1.62,6.33-2.96,10.64-2.36c4.24,0.55,8.97,3,11.88,7.54l-0.02-0.03
								c1.75,2.34,3.01,5.11,3.87,8.12c0.42,1.51,0.76,3.07,0.93,4.69c0.2,1.63,0.2,3.25,0.41,4.88c0.19,1.63,0.46,3.29,1.02,4.85
								c0.59,1.57,1.34,3.13,2,4.77c0.66,1.63,1.17,3.41,1.22,5.26c0.02,1.85-0.29,3.64-0.62,5.44c-0.48,2.53-1.11,4.99-1.56,7.43
								c-0.46,2.43-0.69,4.87-0.63,7.26c0.1,4.77,1.48,9.36,4.1,12.87c1.29,1.76,2.87,3.23,4.62,4.33c1.75,1.1,3.65,1.86,5.47,2.62
								c1.82,0.76,3.6,1.53,5.16,2.55c1.57,0.99,2.93,2.17,4.08,3.43c2.3,2.52,3.64,5.43,4.13,8.08c0.53,2.65,0.38,5.04-0.19,6.86
								c-0.56,1.83-1.47,3.05-2.13,3.78C669.8,234.24,669.36,234.53,669.36,234.53z"/>
						</g>
					</g>
				</g>
			</g>
			<g>
				<g>
					<g>
						<path class="st11" d="M628.91,217.43c-0.09-0.11,1.04-1.25,2.54-2.56c1.5-1.3,2.78-2.27,2.88-2.16s-1.04,1.25-2.54,2.56
							C630.3,216.57,629.01,217.54,628.91,217.43z"/>
					</g>
				</g>
			</g>
			<g>
				<g>
					<g>
						<path class="st12" d="M625.29,208.79l-33.34,4.06c0,0-26.82,4.88-32.22,24.97c-3.72,13.87-11.43,39.72-15.84,54.38
							c-1.9,6.33,0.96,13.11,6.82,16.16h0c7.07,3.68,15.77,0.59,18.95-6.72l14.58-33.55c0,0,5.14,11.72,4.84,17.26
							c-0.3,5.54-11.87,25.91-11.87,25.91l0,0c24.62,14.12,49.65,12.34,69.11,3.51l0,0l-0.93-53.02c0,0,9.16,47.31,27.72,43.71
							c15.56-3.02,5.31-33.34,0-44.94c-6.78-14.79-15.62-35.89-21.18-40.98C637.01,205.9,625.29,208.79,625.29,208.79z"/>
					</g>
				</g>
				<g class="st13">
					<g>
						<g>
							<path d="M594.51,215.52c-2.02,3.15-4.79,5.72-7.6,8.19c-1.89,1.66-3.86,3.33-6.21,4.23c-2.35,0.91-5.18,0.94-7.23-0.53
								c-2.04-1.47-2.85-4.67-1.26-6.63c1.05-1.29,2.79-1.76,4.4-2.16c5.4-1.33,10.8-2.66,16.2-3.99"/>
						</g>
					</g>
				</g>
				<g>
					<g>
						<g>
							<path class="st9" d="M552,277.32c-0.09-0.09,1.74-1.68,4.59-2.39c2.84-0.74,5.22-0.23,5.17-0.11
								c-0.01,0.16-2.33-0.1-5.04,0.61C553.99,276.11,552.09,277.46,552,277.32z"/>
						</g>
					</g>
				</g>
				<g>
					<g>
						<g>
							<path class="st9" d="M556.4,272.72c-0.07-0.11,1.48-0.9,3.55-0.69c2.07,0.19,3.45,1.26,3.35,1.36
								c-0.08,0.14-1.48-0.67-3.4-0.84C557.98,272.35,556.45,272.87,556.4,272.72z"/>
						</g>
					</g>
				</g>
				<g class="st13">
					<g>
						<g>
							<path d="M563.02,275.2c-2.9-1.44-6.56-1.19-9.23,0.64c-0.56,0.38-1.26,0.84-1.85,0.5c-0.56-0.33-0.53-1.17-0.22-1.74
								c0.74-1.36,2.43-1.87,3.96-2.03c2.77-0.29,5.62,0.17,8.16,1.31"/>
						</g>
					</g>
				</g>
				<g class="st13">
					<g>
						<g>
							<path d="M617.21,252.79c-1.76,3.54-6.8,5.75-9.17,9.61c-2,3.26-2.74,7.1-3.94,10.72c-3.31,9.99-10.43,18.66-19.58,23.86
								c1.82-3.46,3.31-7.08,4.43-10.85c0.49-3.46-0.98-6.72-0.98-6.72c1.14-3.52,6.15-8.37,8.45-11.27
								c2.75-3.48,5.52-6.98,8.91-9.84C608.72,255.44,612.8,253.23,617.21,252.79"/>
						</g>
					</g>
				</g>
				<g>
					<g>
						<g>
							<path class="st11" d="M631.39,289.88c-0.12-0.07,1.09-2.42,2.72-5.24c1.63-2.82,3.05-5.05,3.17-4.98
								c0.12,0.07-1.09,2.42-2.72,5.24C632.94,287.72,631.52,289.95,631.39,289.88z"/>
						</g>
					</g>
				</g>
				<g>
					<g>
						<g>
							<path class="st9" d="M658.43,275.75c0.07,0.01,0.04,1.1-0.06,2.86c-0.09,1.76-0.29,4.18-0.18,6.85
								c0.19,5.37,2.27,9.34,2.07,9.4c-0.03,0.02-0.17-0.22-0.4-0.66c-0.23-0.44-0.52-1.1-0.84-1.92c-0.63-1.66-1.24-4.07-1.35-6.79
								c-0.11-2.71,0.15-5.15,0.33-6.9C658.2,276.83,658.36,275.75,658.43,275.75z"/>
						</g>
					</g>
				</g>
				<g>
					<g>
						<g>
							<path class="st11" d="M613.22,298.28c0.1-0.1,1.82,1.56,3.55,3.93c1.74,2.37,2.79,4.51,2.67,4.57
								c-0.13,0.07-1.38-1.93-3.09-4.27C614.64,300.18,613.11,298.38,613.22,298.28z"/>
						</g>
					</g>
				</g>
				<g>
					<g>
						<g>
							<path class="st11" d="M630.2,302.16c0.06-0.13,1.72,0.57,3.7,1.55c1.98,0.98,3.53,1.89,3.47,2.02
								c-0.06,0.13-1.72-0.56-3.7-1.55C631.69,303.19,630.13,302.28,630.2,302.16z"/>
						</g>
					</g>
				</g>
				<g>
					<g>
						<g>
							<path class="st11" d="M619.03,286.11c-0.09,0.11-1.53-0.97-2.98-2.64c-1.45-1.67-2.31-3.25-2.2-3.32
								c0.13-0.08,1.17,1.35,2.59,2.98C617.86,284.76,619.13,285.99,619.03,286.11z"/>
						</g>
					</g>
				</g>
				<g>
					<g>
						<g>
							<path class="st11" d="M598.33,299.81c-0.09-0.12,1.41-1.33,3.06-3.01c1.66-1.67,2.84-3.19,2.97-3.1
								c0.11,0.07-0.9,1.75-2.6,3.47C600.07,298.88,598.41,299.92,598.33,299.81z"/>
						</g>
					</g>
				</g>
				<g>
					<g>
						<g>
							<path class="st11" d="M587.41,305.4c0.1-0.11,1.43,0.95,2.99,2.36c1.55,1.41,2.73,2.64,2.64,2.75
								c-0.1,0.11-1.43-0.95-2.99-2.36C588.49,306.74,587.31,305.51,587.41,305.4z"/>
						</g>
					</g>
				</g>
				<g>
					<g>
						<g>
							<path class="st11" d="M608.11,267.05c-0.08-0.12,1.6-1.29,3.74-2.61c2.14-1.32,3.94-2.29,4.02-2.16
								c0.08,0.12-1.6,1.29-3.74,2.61C609.98,266.2,608.19,267.17,608.11,267.05z"/>
						</g>
					</g>
				</g>
				<g>
					<g>
						<g>
							<path class="st11" d="M625.84,260.83c0.13-0.06,1.09,1.66,2.15,3.85c1.06,2.19,1.81,4.02,1.68,4.08
								c-0.13,0.06-1.09-1.66-2.15-3.85C626.46,262.72,625.71,260.89,625.84,260.83z"/>
						</g>
					</g>
				</g>
				<g>
					<g>
						<g>
							<path class="st11" d="M637.99,258.19c-0.12-0.07,0.73-1.73,1.9-3.69c1.17-1.97,2.22-3.5,2.35-3.42
								c0.12,0.07-0.73,1.73-1.9,3.69C639.17,256.73,638.12,258.26,637.99,258.19z"/>
						</g>
					</g>
				</g>
				<g>
					<g>
						<g>
							<path class="st11" d="M623.82,245.9c0.07-0.14,1.75,0.6,3.93,1.11c2.18,0.52,4.01,0.61,4.01,0.77
								c0.01,0.13-1.88,0.28-4.13-0.26C625.38,246.99,623.75,246.02,623.82,245.9z"/>
						</g>
					</g>
				</g>
				<g>
					<g>
						<g>
							<path class="st11" d="M632.18,232.02c-0.14,0.01-0.38-1.67-0.52-3.76c-0.15-2.09-0.15-3.79-0.01-3.8
								c0.14-0.01,0.38,1.67,0.52,3.76C632.32,230.3,632.32,232.01,632.18,232.02z"/>
						</g>
					</g>
				</g>
				<g>
					<g>
						<g>
							<path class="st11" d="M650.81,259.85c-0.13-0.05,0.47-1.96,1.35-4.27c0.88-2.31,1.7-4.13,1.84-4.08
								c0.13,0.05-0.47,1.96-1.35,4.27C651.77,258.07,650.95,259.9,650.81,259.85z"/>
						</g>
					</g>
				</g>
				<g>
					<g>
						<g>
							<path class="st11" d="M653.49,269.97c0.11-0.07,1.17,1.45,1.93,3.59c0.77,2.14,0.91,3.99,0.78,4
								c-0.15,0.02-0.52-1.74-1.27-3.83C654.19,271.65,653.36,270.05,653.49,269.97z"/>
						</g>
					</g>
				</g>
				<g>
					<g>
						<g>
							<path class="st11" d="M591.91,233.13c0.08-0.12,1.62,0.69,3.45,1.82c1.83,1.13,3.25,2.14,3.17,2.26
								c-0.08,0.12-1.62-0.69-3.45-1.82C593.26,234.27,591.83,233.25,591.91,233.13z"/>
						</g>
					</g>
				</g>
				<g>
					<g>
						<g>
							<path class="st11" d="M582.24,249.52c-0.1-0.11,1.28-1.45,2.64-3.37c1.37-1.91,2.19-3.65,2.33-3.59
								c0.13,0.04-0.49,1.93-1.91,3.9C583.9,248.43,582.32,249.62,582.24,249.52z"/>
						</g>
					</g>
				</g>
				<g>
					<g>
						<g>
							<path class="st11" d="M567.84,250.21c0.08-0.11,1.75,1.05,3.56,2.79c1.81,1.73,3.03,3.36,2.93,3.44
								c-0.11,0.1-1.5-1.36-3.29-3.07C569.26,251.66,567.75,250.33,567.84,250.21z"/>
						</g>
					</g>
				</g>
				<g>
					<g>
						<g>
							<path class="st11" d="M571.3,236.19c-0.1-0.1,1.47-1.78,3.51-3.75c2.04-1.97,3.77-3.48,3.87-3.38
								c0.1,0.1-1.47,1.78-3.51,3.76C573.13,234.78,571.4,236.29,571.3,236.19z"/>
						</g>
					</g>
				</g>
				<g>
					<g>
						<g>
							<path class="st11" d="M562.39,262.83c-0.14,0.04-0.83-1.79-1.55-4.09c-0.72-2.3-1.19-4.21-1.06-4.25
								c0.14-0.04,0.83,1.79,1.55,4.09C562.05,260.88,562.53,262.79,562.39,262.83z"/>
						</g>
					</g>
				</g>
				<g>
					<g>
						<g>
							<path class="st11" d="M569.28,271.39c-0.14-0.01-0.07-2.12,0.17-4.69c0.24-2.58,0.55-4.66,0.69-4.65
								c0.14,0.01,0.07,2.11-0.17,4.69C569.73,269.32,569.42,271.4,569.28,271.39z"/>
						</g>
					</g>
				</g>
			</g>
			<g>
				<g>
					<g>
						<path class="st14" d="M619.09,232.01c-2.13-1.51-4.79-2.08-7.36-1.58c-2.42,0.47-4.56,1.86-5.98,3.87l-8.7,12.36l-47.17,37.62
							c-7.33,5.84-6.63,17.19,1.35,22.1c5.6,3.44,12.85,2.36,17.21-2.56l38.5-43.49l4.97-3.83l5.85-4.24l1.33-12.73
							c0,0,3.51,1.56,6.26,2.81c4.33,1.99,5.77-1.62,5.77-1.62L619.09,232.01z"/>
					</g>
				</g>
				<g>
					<g>
						<g>
							<path class="st15" d="M619.16,240.18c-0.06,0.04-0.34-0.29-0.81-0.8c-0.46-0.5-1.14-1.18-2.08-1.51
								c-0.92-0.31-1.88-0.05-2.38,0.33c-0.53,0.38-0.64,0.82-0.73,0.79c-0.05,0.01-0.07-0.53,0.49-1.07
								c0.54-0.52,1.65-0.92,2.79-0.54c1.1,0.39,1.79,1.2,2.19,1.77C619.05,239.74,619.22,240.14,619.16,240.18z"/>
						</g>
					</g>
				</g>
				<g>
					<g>
						<g>
							<path class="st15" d="M612.98,243.58c-0.05-0.04,0.12-0.38,0.59-0.75c0.46-0.37,1.26-0.75,2.2-0.75
								c0.94,0,1.73,0.39,2.19,0.77c0.47,0.38,0.63,0.72,0.58,0.76c-0.06,0.05-0.32-0.19-0.79-0.45c-0.47-0.27-1.18-0.55-1.98-0.55
								c-0.81,0-1.52,0.27-1.99,0.53C613.3,243.39,613.03,243.63,612.98,243.58z"/>
						</g>
					</g>
				</g>
			</g>
			<g>
				<g>
					<g>
						<g>
							<path class="st14" d="M653.26,229.48l3.31,3.58c0,0,1.1,50.71,3.03,57.6c1.93,6.89,13.23,18.46,19.29,9.09
								c6.06-9.37-9.09-69.17-9.09-69.17s-4.13-13.78-4.41-17.09L653.26,229.48z"/>
						</g>
					</g>
					<g>
						<g>
							<path class="st10" d="M660.85,200.11l-1.3,35.03c-0.09,2.5-1.46,4.78-3.63,6.03l-10.55,6.1c-2.91,1.68-6.56-0.42-6.56-3.78
								v-32.43c0-1.84,1-3.54,2.61-4.43l15.79-8.76C658.88,196.95,660.92,198.2,660.85,200.11z"/>
						</g>
					</g>
				</g>
				<g>
					<g>
						<path class="st11" d="M648.72,209.35c-0.57,1.16-0.09,2.56,1.07,3.13c1.16,0.57,2.56,0.09,3.13-1.07
							c0.57-1.16,0.09-2.56-1.07-3.13C650.69,207.71,649.29,208.19,648.72,209.35z"/>
					</g>
				</g>
				<g>
					<g>
						<path class="st14" d="M665.39,213.5c0,0-7.81-10.82-9.55-10.73c-1.73,0.09-10.13,5.11-9.76,6.2c0.36,1.09,2.1,1.73,3.65,1
							c1.55-0.73,4.29-3.38,4.93-2.83c0.64,0.55,2.46,2.46,2.46,2.46s-7.71,3.94-8.3,5.47c-0.6,1.57-2.01,4.29-0.18,5.29
							c1.19,0.65,3.1-0.09,3.83-3.19c0,0-1.46,4.47,0.8,5.56c2.43,1.18,3.17-1.3,5.13-3.74c1.65-2.05,2.39,0.56,2.39,0.56
							L665.39,213.5z"/>
					</g>
				</g>
				<g>
					<g>
						<g>
							<path class="st15" d="M659.47,213.59c-0.01,0.08-0.56,0.03-1.43,0.14c-0.86,0.1-2.04,0.41-3.15,1.13
								c-1.1,0.72-1.86,1.68-2.3,2.42c-0.45,0.75-0.62,1.28-0.7,1.25c-0.06-0.01-0.01-0.59,0.38-1.42c0.38-0.83,1.15-1.91,2.34-2.69
								c1.19-0.78,2.49-1.05,3.4-1.06C658.94,213.34,659.48,213.53,659.47,213.59z"/>
						</g>
					</g>
				</g>
			</g>
			<g>
				<g>
					<g>
						<g>
							<g>
								<g>
									<g>
										<g>
											<g>
												<path class="st14" d="M593.68,142.42l0.01,4.51l-0.29,67.56c-0.03,7.84,6.68,14.12,15.08,14.09h0
													c8.48-0.03,15.49-6.47,15.65-14.39c0.17-8.32,0.51-17.07,0.51-17.07s10.74-1.59,13.21-15.53
													c1.23-6.93,1.08-18.33,0.66-27.66c-0.38-8.39-7.66-14.78-16.04-14.05L593.68,142.42z"/>
											</g>
										</g>
									</g>
								</g>
								<g>
									<g>
										<g>
											<g>
												<g>
													<path class="st9" d="M635.22,162.45c0.02,0.95-0.77,1.74-1.76,1.78c-0.99,0.04-1.8-0.7-1.82-1.65
														c-0.02-0.95,0.77-1.74,1.76-1.78C634.39,160.76,635.2,161.5,635.22,162.45z"/>
												</g>
											</g>
										</g>
									</g>
									<g>
										<g>
											<g>
												<g>
													<g>
														<path class="st9" d="M635.93,159.83c-0.23,0.23-1.57-0.8-3.5-0.83c-1.93-0.06-3.36,0.91-3.56,0.67
															c-0.1-0.11,0.13-0.52,0.76-0.96c0.61-0.44,1.66-0.85,2.86-0.83c1.2,0.03,2.2,0.49,2.78,0.95
															C635.85,159.3,636.04,159.72,635.93,159.83z"/>
													</g>
												</g>
											</g>
										</g>
									</g>
								</g>
								<g>
									<g>
										<g>
											<g>
												<g>
													<path class="st9" d="M616.95,162.12c0.02,0.95-0.77,1.74-1.76,1.78c-0.99,0.04-1.8-0.7-1.82-1.65
														c-0.02-0.95,0.77-1.74,1.76-1.78C616.12,160.44,616.93,161.17,616.95,162.12z"/>
												</g>
											</g>
										</g>
									</g>
									<g>
										<g>
											<g>
												<g>
													<g>
														<path class="st9" d="M616.96,159.85c-0.23,0.23-1.57-0.8-3.5-0.83c-1.93-0.06-3.36,0.91-3.57,0.67
															c-0.1-0.11,0.13-0.52,0.76-0.96c0.61-0.44,1.66-0.85,2.86-0.83c1.2,0.03,2.2,0.49,2.78,0.95
															C616.88,159.32,617.07,159.75,616.96,159.85z"/>
													</g>
												</g>
											</g>
										</g>
									</g>
								</g>
								<g>
									<g>
										<g>
											<g>
												<g>
													<path class="st9" d="M623.71,174.28c-0.01-0.11,1.2-0.3,3.14-0.51c0.49-0.04,0.96-0.13,1.05-0.47
														c0.12-0.35-0.07-0.89-0.3-1.47c-0.44-1.2-0.9-2.46-1.39-3.78c-1.93-5.38-3.31-9.79-3.1-9.87
														c0.22-0.08,1.96,4.22,3.88,9.6c0.46,1.33,0.91,2.59,1.33,3.8c0.18,0.56,0.49,1.2,0.22,1.94
														c-0.14,0.37-0.51,0.63-0.82,0.71c-0.32,0.09-0.59,0.09-0.84,0.1C624.93,174.4,623.71,174.39,623.71,174.28z"/>
												</g>
											</g>
										</g>
									</g>
								</g>
								<g>
									<g>
										<g>
											<g>
												<path class="st15" d="M624.63,197.13c0,0-9.41,0.44-18.63-5.33c0,0,4.37,9.68,18.38,8.62L624.63,197.13z"/>
											</g>
										</g>
									</g>
								</g>
								<g>
									<g>
										<g>
											<g>
												<path class="st15" d="M622.81,178.91c-0.68-0.93-1.88-1.45-3.09-1.35c-0.84,0.08-1.69,0.46-2.21,1.14
													c-0.52,0.67-0.64,1.64-0.19,2.3c0.51,0.74,1.59,0.93,2.52,0.68c0.93-0.25,1.73-0.84,2.49-1.43
													c0.21-0.16,0.43-0.33,0.56-0.56c0.13-0.23,0.17-0.53,0.01-0.72"/>
											</g>
										</g>
									</g>
								</g>
								<g>
									<g>
										<g>
											<g>
												<g>
													<path class="st9" d="M618.01,175.51c0.31-0.01,0.28,2.08,2.05,3.6c1.76,1.52,4,1.33,4.01,1.62
														c0.03,0.13-0.5,0.4-1.45,0.41c-0.92,0.02-2.27-0.31-3.35-1.23c-1.08-0.93-1.53-2.16-1.58-3.02
														C617.62,176.01,617.86,175.5,618.01,175.51z"/>
												</g>
											</g>
										</g>
									</g>
								</g>
							</g>
						</g>
					</g>
					<g>
						<g>
							<g>
								<path class="st9" d="M576.84,221.2c11.52,0.91,21.66-7.31,23.38-18.73c0.18-1.19,0.38-2.16,0.64-2.8
									c1.62-4.06,1.65-8.65,0.53-12.88c-0.52-1.96-1.26-4.1-0.37-5.91c0.65-1.32,2-2.11,3.1-3.07c2.49-2.17,3.85-5.45,4.12-8.74
									c0.28-3.29-0.45-6.6-1.6-9.7c-0.63-1.7-1.4-3.57-0.76-5.27c0.45-1.2,1.53-2.04,2.48-2.9c2.02-1.82,3.71-4,4.97-6.41
									c1.28-2.45,2.11-5.64-1.23-7.59c-0.7-0.41-1.48-0.65-2.28-0.78c-5.91-0.92-12.95-0.04-16.91,4.61
									c-3.23,3.79-3.68,9.14-4,14.1c-0.98,15.65-26.88,44.71-16.87,66.14L576.84,221.2z"/>
							</g>
						</g>
					</g>
					<g>
						<g>
							<g>
								<g>
									<path class="st9" d="M617.59,152.3c-0.2,0.52-2.12,0.24-4.39,0.47c-2.27,0.19-4.11,0.82-4.4,0.34
										c-0.13-0.23,0.2-0.71,0.94-1.21c0.74-0.49,1.92-0.96,3.28-1.08c1.36-0.12,2.6,0.11,3.42,0.46
										C617.27,151.63,617.68,152.05,617.59,152.3z"/>
								</g>
							</g>
						</g>
					</g>
					<g>
						<g>
							<g>
								<g>
									<path class="st9" d="M635.32,154.23c-0.35,0.43-1.67-0.05-3.27-0.1c-1.6-0.11-2.96,0.24-3.26-0.22
										c-0.13-0.23,0.09-0.66,0.69-1.06c0.59-0.4,1.57-0.72,2.67-0.67c1.1,0.05,2.04,0.47,2.59,0.93
										C635.29,153.57,635.47,154.02,635.32,154.23z"/>
								</g>
							</g>
						</g>
					</g>
				</g>
			</g>
		</g>
		<g>
			<g>
				<g>
					<g>
						<path class="st10" d="M688.68,163.9c0,1.08-0.88,1.96-1.96,1.96c-1.08,0-1.96-0.88-1.96-1.96s0.88-1.96,1.96-1.96
							C687.81,161.94,688.68,162.82,688.68,163.9z"/>
					</g>
				</g>
				<g>
					<g>
						<circle class="st10" cx="694.57" cy="163.9" r="1.96"/>
					</g>
				</g>
				<g>
					<g>
						<path class="st10" d="M704.35,162.92c0.54,0.94,0.22,2.14-0.72,2.68c-0.94,0.54-2.14,0.22-2.68-0.72
							c-0.54-0.94-0.22-2.14,0.72-2.68C702.61,161.66,703.81,161.98,704.35,162.92z"/>
					</g>
				</g>
			</g>
			<g>
				<g>
					<g>
						<path class="st10" d="M694.69,141.01c0-0.01,0.13-0.01,0.4-0.01c0.29,0.01,0.67,0.02,1.16,0.03c0.26,0.01,0.54,0.01,0.86,0.04
							c0.32,0.04,0.66,0.09,1.03,0.14c0.37,0.05,0.77,0.11,1.2,0.17c0.42,0.1,0.87,0.21,1.34,0.33c1.88,0.48,4.16,1.31,6.49,2.83
							c2.33,1.5,4.75,3.63,6.71,6.54c1.93,2.91,3.42,6.57,3.81,10.68c0.04,1.03,0.16,2.08,0.06,3.14c-0.04,0.53-0.03,1.07-0.1,1.61
							c-0.08,0.54-0.16,1.07-0.24,1.62c-0.44,2.14-1.08,4.34-2.18,6.39c-1.08,2.05-2.47,4-4.17,5.74c-1.73,1.7-3.76,3.18-6.01,4.32
							c-2.25,1.15-4.74,1.94-7.33,2.25c-0.64,0.13-1.3,0.13-1.95,0.17c-0.66,0.04-1.31,0.07-1.98,0.04
							c-1.32-0.05-2.65-0.22-3.96-0.5c-2.85-0.61-5.53-1.76-7.88-3.32l0.24,0.02c-2.73,1.1-5.41,2.17-8.03,3.22l-0.48,0.19
							l0.14-0.49c0.81-2.94,1.6-5.81,2.36-8.58l0.04,0.21c-2.25-2.99-3.69-6.41-4.28-9.8c-0.3-1.7-0.42-3.39-0.31-5.02
							c0.03-0.82,0.07-1.63,0.23-2.41c0.06-0.39,0.12-0.79,0.18-1.17c0.07-0.39,0.19-0.76,0.28-1.14c1.55-6.04,5.27-10.5,8.95-13.05
							c1.84-1.3,3.66-2.23,5.33-2.81c0.41-0.15,0.82-0.29,1.2-0.43c0.4-0.1,0.78-0.2,1.14-0.29c0.36-0.09,0.71-0.18,1.04-0.26
							c0.33-0.06,0.66-0.1,0.96-0.15c0.61-0.08,1.14-0.18,1.61-0.2c0.46-0.02,0.85-0.03,1.18-0.04c0.3-0.01,0.54-0.01,0.72-0.02
							C694.61,141,694.69,141,694.69,141.01c0,0.01-0.08,0.02-0.24,0.03c-0.18,0.01-0.42,0.03-0.72,0.06
							c-0.32,0.02-0.71,0.05-1.17,0.08c-0.46,0.04-0.99,0.15-1.59,0.24c-2.36,0.43-5.9,1.37-9.52,4.02
							c-3.61,2.55-7.24,6.97-8.73,12.91c-0.09,0.37-0.2,0.74-0.27,1.12c-0.06,0.38-0.11,0.77-0.17,1.15
							c-0.15,0.77-0.18,1.56-0.21,2.37c-0.1,1.6,0.03,3.26,0.33,4.92c0.59,3.32,2.01,6.66,4.22,9.59l0.07,0.1l-0.03,0.12
							c-0.76,2.77-1.54,5.64-2.34,8.58l-0.34-0.3c2.61-1.05,5.29-2.13,8.02-3.23l0.13-0.05l0.11,0.07c2.3,1.51,4.92,2.65,7.7,3.24
							c1.28,0.27,2.58,0.44,3.87,0.49c0.65,0.03,1.29,0.01,1.93-0.03c0.64-0.04,1.28-0.04,1.91-0.16c2.53-0.3,4.97-1.07,7.17-2.19
							c2.21-1.11,4.19-2.55,5.89-4.21c1.67-1.7,3.04-3.61,4.1-5.61c1.09-2,1.72-4.15,2.16-6.25c0.08-0.53,0.16-1.06,0.24-1.58
							c0.08-0.52,0.07-1.05,0.11-1.57c0.1-1.04-0.02-2.07-0.05-3.08c-0.37-4.04-1.81-7.64-3.69-10.52c-1.91-2.87-4.28-5-6.57-6.5
							c-2.29-1.52-4.53-2.37-6.39-2.88c-0.47-0.12-0.91-0.24-1.32-0.35c-0.42-0.07-0.82-0.13-1.19-0.19
							c-0.37-0.06-0.71-0.12-1.02-0.17c-0.31-0.03-0.6-0.04-0.85-0.06c-0.49-0.04-0.87-0.06-1.16-0.08
							C694.82,141.03,694.69,141.02,694.69,141.01z"/>
					</g>
				</g>
			</g>
		</g>
	</g>
</g>
<g id="Character_2">
	<g>
		<path class="st4" d="M248.84,324.1l-35.31,5.95c-13.22-11.4-30.41-18.31-49.23-18.31c-41.67,0-75.45,33.78-75.45,75.45
			c0,41.67,33.78,75.45,75.45,75.45s75.45-33.78,75.45-75.45c0-11.67-2.65-22.72-7.39-32.59L248.84,324.1z"/>
		<g>
			<g>
				<g>
					<g>
						<path class="st9" d="M94.1,307.98c0,1.08,0.88,1.96,1.96,1.96c1.08,0,1.96-0.88,1.96-1.96c0-1.08-0.88-1.96-1.96-1.96
							C94.98,306.02,94.1,306.89,94.1,307.98z"/>
					</g>
				</g>
				<g>
					<g>
						<path class="st9" d="M86.26,307.98c0,1.08,0.88,1.96,1.96,1.96c1.08,0,1.96-0.88,1.96-1.96c0-1.08-0.88-1.96-1.96-1.96
							C87.14,306.02,86.26,306.89,86.26,307.98z"/>
					</g>
				</g>
				<g>
					<g>
						<path class="st9" d="M78.43,307c-0.54,0.94-0.22,2.14,0.72,2.68c0.94,0.54,2.14,0.22,2.68-0.72c0.54-0.94,0.22-2.14-0.72-2.68
							C80.17,305.74,78.98,306.06,78.43,307z"/>
					</g>
				</g>
			</g>
			<g>
				<g>
					<g>
						<path class="st9" d="M88.1,285.08c0,0.01-0.13,0.02-0.4,0.05c-0.29,0.02-0.67,0.05-1.16,0.08c-0.25,0.02-0.54,0.03-0.85,0.06
							c-0.31,0.05-0.65,0.11-1.02,0.17c-0.37,0.06-0.76,0.13-1.19,0.19c-0.42,0.11-0.86,0.23-1.32,0.35
							c-1.86,0.51-4.1,1.36-6.39,2.88c-2.29,1.5-4.65,3.63-6.57,6.5c-1.88,2.88-3.32,6.48-3.69,10.52
							c-0.03,1.01-0.15,2.04-0.05,3.08c0.04,0.52,0.03,1.05,0.11,1.57c0.08,0.52,0.16,1.05,0.25,1.58c0.44,2.1,1.07,4.25,2.16,6.25
							c1.06,2.01,2.43,3.91,4.1,5.61c1.7,1.66,3.68,3.1,5.89,4.21c2.2,1.12,4.63,1.89,7.17,2.19c0.63,0.12,1.27,0.12,1.91,0.16
							c0.64,0.04,1.29,0.07,1.93,0.03c1.29-0.05,2.59-0.22,3.87-0.49c2.78-0.59,5.4-1.72,7.7-3.24l0.11-0.07l0.13,0.05
							c2.73,1.1,5.41,2.18,8.02,3.23l-0.34,0.3c-0.8-2.95-1.59-5.81-2.34-8.58l-0.03-0.12l0.07-0.1c2.21-2.93,3.63-6.27,4.22-9.59
							c0.3-1.66,0.43-3.32,0.33-4.92c-0.03-0.8-0.06-1.6-0.21-2.37c-0.06-0.39-0.12-0.77-0.17-1.15c-0.07-0.38-0.18-0.75-0.27-1.12
							c-1.49-5.94-5.12-10.36-8.73-12.91c-3.62-2.64-7.16-3.59-9.52-4.02c-0.6-0.09-1.13-0.21-1.59-0.24
							c-0.46-0.03-0.85-0.06-1.17-0.08c-0.3-0.02-0.53-0.04-0.72-0.06C88.18,285.1,88.1,285.09,88.1,285.08
							c0-0.01,0.08-0.01,0.24-0.01c0.18,0,0.42,0.01,0.72,0.02c0.33,0.01,0.72,0.02,1.18,0.04c0.47,0.02,1,0.13,1.61,0.2
							c0.3,0.05,0.63,0.08,0.96,0.15c0.33,0.08,0.68,0.17,1.04,0.26c0.36,0.09,0.74,0.19,1.14,0.29c0.39,0.14,0.79,0.28,1.2,0.43
							c1.67,0.58,3.48,1.51,5.33,2.81c3.68,2.55,7.4,7.01,8.95,13.05c0.09,0.38,0.21,0.75,0.28,1.14c0.06,0.39,0.12,0.78,0.18,1.17
							c0.15,0.79,0.19,1.59,0.23,2.41c0.11,1.64-0.01,3.33-0.31,5.02c-0.59,3.39-2.03,6.81-4.28,9.8l0.04-0.21
							c0.76,2.77,1.55,5.63,2.36,8.58l0.14,0.49l-0.48-0.19c-2.62-1.05-5.29-2.12-8.03-3.22l0.24-0.02
							c-2.35,1.55-5.03,2.71-7.88,3.32c-1.31,0.28-2.64,0.45-3.96,0.5c-0.66,0.03-1.32,0.01-1.98-0.04
							c-0.66-0.04-1.31-0.04-1.95-0.17c-2.59-0.31-5.08-1.1-7.33-2.25c-2.25-1.14-4.28-2.62-6.01-4.32
							c-1.7-1.74-3.09-3.69-4.17-5.74c-1.11-2.05-1.74-4.24-2.18-6.39c-0.08-0.54-0.16-1.08-0.24-1.62
							c-0.08-0.54-0.07-1.08-0.1-1.61c-0.1-1.06,0.02-2.11,0.06-3.14c0.39-4.11,1.88-7.77,3.81-10.68c1.96-2.91,4.39-5.04,6.71-6.54
							c2.33-1.52,4.61-2.35,6.49-2.83c0.47-0.12,0.92-0.23,1.34-0.33c0.43-0.06,0.83-0.12,1.2-0.17c0.37-0.05,0.71-0.1,1.03-0.14
							c0.31-0.03,0.6-0.03,0.86-0.04c0.49-0.01,0.88-0.02,1.16-0.03C87.96,285.07,88.1,285.07,88.1,285.08z"/>
					</g>
				</g>
			</g>
		</g>
		<g>
			<g>
				<g>
					<g>
						<path class="st9" d="M172.55,271.22c1.83-4.07,6.1-6.94,10.57-7.09c4.47-0.15,8.93,2.42,11.02,6.37
							c1.25,2.35,1.74,5.14,3.54,7.1c2.25,2.44,6.39,2.82,9.05,0.85c0.73,2.85-1.04,6.11-3.82,7.06c1.47,0.15,2.95,0.3,4.42,0.45
							c-2.39,5.21-8.92,7.59-14.57,6.57c-5.65-1.02-10.45-4.75-14.29-9"/>
					</g>
				</g>
				<g>
					<g>
						<g>
							<path class="st9" d="M172.58,271.3l13.64,4.47c4.8,3.17,8.62,7.83,10.5,13.26c0.64,1.84,1.07,3.76,1.88,5.53
								c0.81,1.77,2.06,3.44,3.84,4.24c1.31,0.59,2.8,0.65,4.14,1.15c2.28,0.84,4,2.93,4.58,5.28c0.58,2.35,0.05,4.91-1.24,6.96
								c-0.65,1.03-1.51,2.02-1.56,3.24c-0.04,0.82,0.31,1.6,0.5,2.4c0.65,2.71-0.64,5.77-3.04,7.2c-2.4,1.43-5.72,1.1-7.79-0.76
								c-0.87,2-2.03,4.07-4.01,5.01c-1.98,0.94-4.89,0.1-5.3-2.05c-0.98,2.06-3.44,3.3-5.69,2.88c-2.25-0.43-4.07-2.48-4.23-4.75
								l-37.38-40.78C147,269.63,168.82,270.95,172.58,271.3z"/>
						</g>
					</g>
					<g>
						<g>
							<g>
								<g>
									<g>
										<g>
											<g>
												<g>
													<g>
														<g>
															<g>
																<g>
																	<g>
																		<g>
																			<g>
																				<path class="st16" d="M178.91,285.48c2.41,0.25,4.22,2.3,4.17,4.72l0,0l-2.64,62.79
																					c-0.1,7.41-13.59,16.18-21.55,16.02l0,0c-8.04-0.17-5.67-8.68-5.79-15.73c-0.19-11.78-0.19-16.21-0.19-16.14
																					c0,0-10.16-1.68-12.26-14.9c-1.05-6.57-0.72-17.35-0.16-26.16c0.5-7.93,5.77-17.66,13.69-16.82L178.91,285.48z"
																					/>
																			</g>
																		</g>
																	</g>
																</g>
															</g>
														</g>
													</g>
												</g>
												<g>
													<g>
														<g>
															<g>
																<g>
																	<g>
																		<g>
																			<g>
																				<g>
																					<path class="st9" d="M143.93,304.62c-0.03,0.9,0.7,1.66,1.64,1.71c0.93,0.05,1.72-0.63,1.75-1.53
																						c0.03-0.89-0.7-1.66-1.64-1.71C144.75,303.04,143.96,303.73,143.93,304.62z"/>
																				</g>
																			</g>
																		</g>
																	</g>
																</g>
															</g>
														</g>
													</g>
													<g>
														<g>
															<g>
																<g>
																	<g>
																		<g>
																			<g>
																				<g>
																					<g>
																						<path class="st9" d="M142.83,301.67c0.21,0.22,1.5-0.73,3.33-0.72c1.83-0.02,3.17,0.92,3.37,0.69
																							c0.1-0.1-0.12-0.5-0.7-0.92c-0.58-0.42-1.56-0.83-2.7-0.83c-1.14,0.01-2.1,0.42-2.65,0.85
																							C142.92,301.17,142.73,301.57,142.83,301.67z"/>
																					</g>
																				</g>
																			</g>
																		</g>
																	</g>
																</g>
															</g>
														</g>
													</g>
												</g>
												<g>
													<g>
														<g>
															<g>
																<g>
																	<g>
																		<g>
																			<g>
																				<g>
																					<path class="st9" d="M161.81,304.62c-0.03,0.9,0.7,1.66,1.64,1.71c0.93,0.05,1.72-0.63,1.75-1.53
																						c0.03-0.89-0.7-1.66-1.64-1.71C162.63,303.04,161.84,303.73,161.81,304.62z"/>
																				</g>
																			</g>
																		</g>
																	</g>
																</g>
															</g>
														</g>
													</g>
													<g>
														<g>
															<g>
																<g>
																	<g>
																		<g>
																			<g>
																				<g>
																					<g>
																						<path class="st9" d="M160.81,302.01c0.21,0.22,1.5-0.73,3.33-0.72c1.83-0.02,3.17,0.92,3.37,0.69
																							c0.1-0.1-0.12-0.5-0.7-0.92c-0.58-0.42-1.56-0.83-2.7-0.83c-1.14,0.01-2.1,0.42-2.65,0.85
																							C160.9,301.51,160.71,301.91,160.81,302.01z"/>
																					</g>
																				</g>
																			</g>
																		</g>
																	</g>
																</g>
															</g>
														</g>
													</g>
												</g>
												<g>
													<g>
														<g>
															<g>
																<g>
																	<g>
																		<g>
																			<g>
																				<g>
																					<path class="st9" d="M154.17,315.54c0.01-0.1-1.13-0.3-2.97-0.53c-0.47-0.05-0.91-0.14-0.99-0.46
																						c-0.11-0.34,0.09-0.84,0.31-1.38c0.44-1.13,0.9-2.31,1.38-3.55c1.92-5.05,3.31-9.2,3.1-9.28
																						c-0.2-0.08-1.93,3.96-3.84,9.01c-0.46,1.25-0.9,2.43-1.32,3.57c-0.18,0.53-0.48,1.13-0.24,1.83
																						c0.13,0.35,0.47,0.6,0.77,0.68c0.3,0.09,0.56,0.1,0.79,0.11C153.02,315.63,154.17,315.64,154.17,315.54z"/>
																				</g>
																			</g>
																		</g>
																	</g>
																</g>
															</g>
														</g>
													</g>
												</g>
												<g>
													<g>
														<g>
															<g>
																<g>
																	<g>
																		<g>
																			<g>
																				<path class="st17" d="M152.91,337.12c0,0,8.91,0.57,17.75-4.72c0,0-4.31,9.08-17.57,7.84L152.91,337.12z"/>
																			</g>
																		</g>
																	</g>
																</g>
															</g>
														</g>
													</g>
												</g>
												<g>
													<g>
														<g>
															<g>
																<g>
																	<g>
																		<g>
																			<g>
																				<path class="st17" d="M154.95,319.94c0.66-0.87,1.81-1.34,2.95-1.22c0.79,0.09,1.6,0.47,2.08,1.11
																					c0.48,0.64,0.58,1.56,0.14,2.17c-0.49,0.69-1.52,0.85-2.4,0.6c-0.87-0.25-1.62-0.82-2.34-1.39
																					c-0.2-0.16-0.4-0.32-0.52-0.54c-0.12-0.22-0.15-0.5,0-0.68"/>
																			</g>
																		</g>
																	</g>
																</g>
															</g>
														</g>
													</g>
												</g>
												<g>
													<g>
														<g>
															<g>
																<g>
																	<g>
																		<g>
																			<g>
																				<g>
																					<path class="st9" d="M159.56,316.8c-0.3-0.02-0.3,1.96-2,3.37c-1.7,1.41-3.81,1.19-3.83,1.46
																						c-0.03,0.12,0.47,0.38,1.36,0.41c0.88,0.03,2.16-0.25,3.2-1.11c1.04-0.86,1.48-2.01,1.55-2.82
																						C159.91,317.28,159.69,316.79,159.56,316.8z"/>
																				</g>
																			</g>
																		</g>
																	</g>
																</g>
															</g>
														</g>
													</g>
												</g>
											</g>
										</g>
									</g>
									<g>
										<g>
											<g>
												<g>
													<g>
														<g>
															<g>
																<g>
																	<path class="st9" d="M159.99,298.82c0.18,0.5,2.01,0.26,4.15,0.52c2.15,0.21,3.88,0.84,4.17,0.4
																		c0.13-0.21-0.17-0.68-0.87-1.16c-0.69-0.48-1.8-0.94-3.09-1.08c-1.29-0.14-2.47,0.06-3.25,0.38
																		C160.31,298.19,159.91,298.58,159.99,298.82z"/>
																</g>
															</g>
														</g>
													</g>
												</g>
											</g>
										</g>
									</g>
									<g>
										<g>
											<g>
												<g>
													<g>
														<g>
															<g>
																<g>
																	<path class="st9" d="M143.51,296.39c0.32,0.41,1.58-0.02,3.1-0.04c1.51-0.07,2.8,0.28,3.09-0.15
																		c0.13-0.21-0.07-0.63-0.63-1.02c-0.55-0.39-1.48-0.71-2.52-0.68c-1.04,0.03-1.94,0.41-2.47,0.83
																		C143.54,295.76,143.36,296.19,143.51,296.39z"/>
																</g>
															</g>
														</g>
													</g>
												</g>
											</g>
										</g>
									</g>
								</g>
							</g>
							<g>
								<g>
									<g>
										<g>
											<g>
												<path class="st16" d="M181.62,306.62c1-0.69,2.41-0.44,3.46,0.17c2.43,1.4,3.65,4.62,2.74,7.27
													c-0.9,2.66-3.82,4.47-6.61,4.11"/>
											</g>
										</g>
									</g>
								</g>
							</g>
							<g>
								<g>
									<g>
										<g>
											<g>
												<path class="st9" d="M160.78,274.84c-4.83,0.16-8.49,1.63-12.73,3.94s-7.78,6.13-9.09,10.77
													c-0.28,0.99-0.43,2.11,0.11,2.98c0.71,1.15,2.4,1.34,3.63,0.78c1.23-0.56,2.12-1.66,2.96-2.72
													c0.63,2.43,3.04,4.27,5.55,4.24c2.51-0.03,4.88-1.92,5.45-4.36c0.02,2.54,2.57,4.64,5.11,4.54
													c2.54-0.09,4.79-2.05,5.64-4.44c0.47,2.26,0.98,4.59,2.33,6.45c1.35,1.87,3.8,3.15,6,2.44
													c-0.31,1.97-0.61,4.04,0.09,5.91c0.7,1.87,2.78,3.38,4.67,2.73c1.84-0.63,2.55-2.8,2.98-4.69
													c0.83-3.64,1.54-7.35,1.42-11.08c-0.12-3.73-1.12-7.53-3.41-10.48c-2.37-3.05-5.97-4.99-9.71-5.97
													c-3.74-0.99-7.66-1.1-11.53-1.05"/>
											</g>
										</g>
									</g>
								</g>
							</g>
							<g>
								<g>
									<g>
										<g>
											<g>
												<g>
													<path class="st17" d="M182.54,314.23c0.04-0.09,0.51,0.11,1.15-0.18c0.63-0.25,1.2-1.18,1.14-2.26
														c-0.04-1.1-0.75-1.88-1.41-2.12c-0.66-0.27-1.15-0.14-1.18-0.24c-0.05-0.07,0.45-0.42,1.33-0.22
														c0.42,0.1,0.91,0.35,1.3,0.81c0.38,0.45,0.63,1.08,0.66,1.74c0.1,1.33-0.74,2.54-1.66,2.75
														C182.96,314.74,182.47,314.28,182.54,314.23z"/>
												</g>
											</g>
										</g>
									</g>
								</g>
							</g>
						</g>
					</g>
				</g>
				<g>
					<g>
						<ellipse class="st12" cx="182.94" cy="318.06" rx="1.73" ry="1.72"/>
					</g>
				</g>
				<g>
					<g>
						<g>
							<path class="st12" d="M172.76,270.62c-0.01-0.05,0.8-0.28,2.15-0.25c1.34,0.03,3.22,0.44,5.02,1.47
								c1.8,1.04,3.09,2.46,3.79,3.61c0.71,1.15,0.91,1.97,0.86,1.99c-0.09,0.04-0.41-0.72-1.17-1.78
								c-0.76-1.06-2.03-2.37-3.75-3.36c-1.72-0.99-3.49-1.43-4.79-1.55C173.59,270.62,172.77,270.72,172.76,270.62z"/>
						</g>
					</g>
				</g>
				<g>
					<g>
						<g>
							<path class="st10" d="M179.69,270.63c-0.02,0-0.03-0.14-0.05-0.42c0-0.27,0.05-0.69,0.25-1.18c0.38-0.98,1.55-2.21,3.42-2.65
								c1.89-0.52,4.28,0.45,5.95,2.28c0.85,0.91,1.57,2.01,2.16,3.21c0.59,1.2,1.07,2.5,1.58,3.8c0.51,1.3,1.03,2.56,1.7,3.67
								c0.67,1.11,1.48,2.08,2.41,2.81c0.92,0.74,1.96,1.22,2.99,1.36c1.03,0.17,2.01-0.05,2.82-0.39c1.64-0.74,2.56-2,2.98-2.9
								c0.41-0.92,0.43-1.51,0.49-1.5c0.02,0,0.01,0.14-0.01,0.42c-0.03,0.27-0.11,0.67-0.29,1.16c-0.38,0.96-1.29,2.32-3.01,3.15
								c-0.85,0.39-1.92,0.65-3.04,0.49c-1.12-0.14-2.25-0.64-3.23-1.41c-0.99-0.77-1.85-1.77-2.55-2.93
								c-0.7-1.16-1.23-2.44-1.75-3.75c-0.99-2.62-1.95-5.13-3.6-6.87c-1.58-1.76-3.76-2.68-5.52-2.25
								c-1.76,0.36-2.9,1.48-3.31,2.37C179.64,270.03,179.76,270.64,179.69,270.63z"/>
						</g>
					</g>
				</g>
				<g>
					<g>
						<g>
							<path class="st10" d="M154.72,291.04c-0.02,0-0.05-0.12-0.09-0.36c-0.03-0.24-0.11-0.6-0.12-1.06
								c-0.08-0.92-0.05-2.28,0.24-3.92c0.29-1.64,0.94-3.55,2.03-5.47c1.11-1.9,2.7-3.82,4.8-5.29c2.09-1.48,4.38-2.4,6.51-2.93
								c2.14-0.55,4.14-0.69,5.8-0.59c1.66,0.1,2.99,0.39,3.86,0.7c0.45,0.13,0.77,0.3,0.99,0.39c0.22,0.1,0.33,0.16,0.33,0.18
								c-0.03,0.12-1.92-0.83-5.2-0.91c-1.63-0.05-3.58,0.13-5.67,0.69c-2.08,0.55-4.31,1.46-6.33,2.9
								c-2.03,1.42-3.58,3.27-4.68,5.11c-1.08,1.86-1.75,3.71-2.08,5.3C154.44,288.98,154.85,291.04,154.72,291.04z"/>
						</g>
					</g>
				</g>
				<g>
					<g>
						<g>
							<path class="st10" d="M163.07,290.15c-0.03,0-0.06-0.37-0.04-1.03c0.02-0.66,0.12-1.62,0.38-2.78c0.5-2.31,1.8-5.46,4.3-8.15
								c2.5-2.69,5.54-4.22,7.81-4.9c1.14-0.35,2.09-0.52,2.74-0.6c0.66-0.07,1.03-0.07,1.03-0.04c0.01,0.1-1.45,0.22-3.66,0.99
								c-2.19,0.75-5.12,2.29-7.54,4.9c-2.42,2.61-3.74,5.64-4.32,7.88C163.18,288.69,163.17,290.16,163.07,290.15z"/>
						</g>
					</g>
				</g>
			</g>
			<g>
				<g>
					<g>
						<path class="st12" d="M160.78,368.22c-2.89-8.87-9.97-17.9-17.74-14.64c-8.65,3.63-11.06,8.22-15.8,15.34
							c-4.74,7.12-7.65,15.27-10.51,23.33c-1.12,3.15-2.2,6.81-0.48,9.68c1.48,2.48,4.53,3.46,7.32,4.2
							c7.21,1.92,14.49,3.56,21.82,4.92c2.94,0.55,6.17,1.01,8.77-0.47c3.3-1.87,4.31-6.07,5-9.8c2.41-13.08,4.83-26.17,7.24-39.25"
							/>
					</g>
				</g>
				<g>
					<g>
						<g>
							<g>
								<g>
									<path class="st12" d="M152.46,349.33l-11.38,4.91c-5.75,4.53-7.38,12.29-7.18,19.6l-4.73,80.14c0,0,33.2,20.52,72-0.94
										c1.01-0.56-6.5-18.89-6.5-18.89l10.57-40.02c0.81-5.75,1.31-17.68-0.19-23.34c-3.85-14.52-14.15-18.87-24.73-21.78
										c0,0-10.58,8.88-20.91,7.01C159.4,356.02,153.1,355.43,152.46,349.33z"/>
								</g>
							</g>
						</g>
					</g>
					<g class="st13">
						<g>
							<g>
								<path d="M137.17,416.05c6.57,9.52,13.13,19.03,19.7,28.55c2.57,3.72,5.24,7.54,9.05,9.98c5.54,3.54,13.17,3.46,18.63-0.19
									c5.46-3.65,8.45-10.67,7.3-17.14c-0.14-0.77-0.34-1.56-0.88-2.13c-0.82-0.88-2.21-0.99-3.36-0.64s-2.16,1.05-3.22,1.61
									c-6.19,3.28-14.04,1.52-19.84-2.4s-10.06-9.67-14.51-15.08c-1.64-2-3.44-4.05-5.87-4.95c-2.43-0.89-5.66-0.16-6.69,2.21"/>
							</g>
						</g>
					</g>
				</g>
				<g>
					<g>
						<ellipse class="st5" cx="170.35" cy="370" rx="6.8" ry="6.78"/>
					</g>
				</g>
				<g>
					<g>
						<path class="st5" d="M138.65,364.21c0,3.75,3.04,6.78,6.8,6.78c3.76,0,6.8-3.04,6.8-6.78c0-3.75-3.04-6.78-6.8-6.78
							C141.7,357.43,138.65,360.46,138.65,364.21z"/>
					</g>
				</g>
				<g>
					<g>
						<path class="st5" d="M133.17,429.17c0,3.75,3.04,6.78,6.8,6.78c3.76,0,6.8-3.04,6.8-6.78c0-3.75-3.04-6.78-6.8-6.78
							C136.21,422.38,133.17,425.42,133.17,429.17z"/>
					</g>
				</g>
				<g>
					<g>
						<ellipse class="st5" cx="152.26" cy="448.7" rx="6.8" ry="6.78"/>
					</g>
				</g>
				<g>
					<g>
						<ellipse class="st5" cx="183.96" cy="450.34" rx="6.8" ry="6.78"/>
					</g>
				</g>
				<g>
					<g>
						<ellipse class="st5" cx="157.1" cy="408.58" rx="6.8" ry="6.78"/>
					</g>
				</g>
				<g>
					<g>
						<ellipse class="st5" cx="150.3" cy="387.19" rx="6.8" ry="6.78"/>
					</g>
				</g>
				<g>
					<g>
						<g>
							<path class="st9" d="M150.3,350.98c0.12-0.09,0.84,2.08,3.5,4.31c1.31,1.11,3.12,2.15,5.27,2.86
								c2.16,0.7,4.69,1.03,7.29,0.74c2.61-0.32,5.01-1.13,7.06-2.14c2.05-1,3.76-2.17,5.13-3.24c1.37-1.07,2.41-2.02,3.11-2.69
								c0.7-0.67,1.09-1.05,1.12-1.02c0.02,0.02-0.31,0.45-0.97,1.16c-0.66,0.72-1.67,1.72-3.02,2.83
								c-1.35,1.11-3.07,2.33-5.14,3.38c-2.07,1.05-4.53,1.9-7.21,2.22c-2.69,0.3-5.29-0.06-7.5-0.8c-2.21-0.76-4.05-1.86-5.36-3.04
								c-1.32-1.17-2.18-2.34-2.64-3.21c-0.26-0.42-0.38-0.78-0.5-1.01C150.33,351.11,150.28,350.98,150.3,350.98z"/>
						</g>
					</g>
				</g>
				<g>
					<g>
						<g>
							<path class="st12" d="M184.56,350.51c7.78,3.25,15.87,6.73,21.24,13.22c5.46,6.59,7.36,15.55,6.96,24.09
								c-0.4,8.54-2.88,16.83-5.35,25.02c-0.97,3.2-2.26,6.79-5.35,8.09c-2.66,1.12-5.7,0.12-8.4-0.93
								c-6.95-2.7-13.79-5.67-20.51-8.9c-2.7-1.29-5.57-2.83-6.79-5.55c-1.55-3.46,0.12-7.44,1.78-10.85
								c5.81-11.98,11.62-23.95,17.43-35.93"/>
						</g>
					</g>
					<g>
						<g>
							<ellipse class="st5" cx="201.16" cy="391.96" rx="6.8" ry="6.78"/>
						</g>
					</g>
					<g>
						<g>
							<ellipse class="st5" cx="183.15" cy="404.36" rx="6.8" ry="6.78"/>
						</g>
					</g>
					<g>
						<g>
							<path class="st5" d="M184.95,371.06c0,3.67,2.99,6.65,6.67,6.65c3.68,0,6.67-2.98,6.67-6.65c0-3.67-2.99-6.65-6.67-6.65
								C187.93,364.41,184.95,367.38,184.95,371.06z"/>
						</g>
					</g>
					<g>
						<g>
							<g>
								<path class="st16" d="M171.13,410.05l-1.73,6.68l-34.56-25.19l-10.58-15.04c-1.42-2.01-3.56-3.4-5.98-3.87l0,0
									c-2.57-0.5-5.23,0.07-7.36,1.58l-9.85,6.99c0,0,0.27,5.3,2.66,4.24c2.39-1.06,7.18-3.71,7.18-3.71l1.33,12.73l5.85,4.24
									l5.85,4.51l39.02,38.73c8.41,8.34,22.54,6.04,27.84-4.54l5.78-16.42L171.13,410.05z"/>
							</g>
						</g>
						<g>
							<g>
								<g>
									<path class="st17" d="M168.52,415.77c0.02-0.05,0.67,0.16,1.45,0.89c0.79,0.72,1.61,2.01,2.02,3.58
										c0.41,1.57,0.41,3.04,0.37,4.07c-0.04,1.04-0.13,1.68-0.2,1.68c-0.07,0-0.12-0.64-0.17-1.67
										c-0.06-1.03-0.12-2.45-0.51-3.94c-0.39-1.49-1.11-2.71-1.78-3.46C169.04,416.17,168.48,415.85,168.52,415.77z"/>
								</g>
							</g>
						</g>
						<g>
							<g>
								<g>
									<path class="st17" d="M110.85,382.38c-0.06-0.04,0.11-0.44,0.52-1.03c0.4-0.57,1.09-1.38,2.19-1.77
										c1.13-0.38,2.24,0.01,2.79,0.54c0.57,0.54,0.55,1.08,0.49,1.07c-0.08,0.03-0.2-0.41-0.73-0.79
										c-0.5-0.37-1.46-0.64-2.38-0.33c-0.94,0.33-1.61,1.02-2.08,1.51C111.19,382.09,110.91,382.43,110.85,382.38z"/>
								</g>
							</g>
						</g>
						<g>
							<g>
								<g>
									<path class="st17" d="M117.04,385.78c-0.06,0.05-0.32-0.18-0.8-0.45c-0.47-0.26-1.18-0.54-1.99-0.53
										c-0.81,0-1.52,0.28-1.98,0.55c-0.47,0.27-0.73,0.51-0.79,0.45c-0.05-0.04,0.12-0.38,0.58-0.76
										c0.46-0.38,1.25-0.76,2.19-0.77c0.94,0,1.74,0.38,2.2,0.75C116.92,385.4,117.09,385.74,117.04,385.78z"/>
								</g>
							</g>
						</g>
					</g>
					<g>
						<g>
							<g>
								<path class="st9" d="M171.13,410.04c0,0-0.24,0-0.66-0.16c-0.42-0.16-1.02-0.5-1.56-1.18c-0.54-0.67-1-1.66-1.14-2.88
									c-0.15-1.23,0.16-2.63,0.73-4.04c0.57-1.42,1.42-2.85,2.14-4.45c0.74-1.6,1.39-3.37,1.98-5.27
									c1.18-3.79,2.04-8.09,3.23-12.55c1.2-4.45,2.78-8.63,5.05-11.97c2.22-3.37,5.18-5.71,7.94-6.98
									c2.77-1.3,5.31-1.54,6.99-1.42c1.7,0.12,2.58,0.49,2.58,0.49c-0.01,0.06-0.91-0.23-2.59-0.29
									c-1.66-0.05-4.14,0.23-6.83,1.55c-2.68,1.29-5.55,3.59-7.7,6.92c-2.21,3.29-3.75,7.42-4.94,11.84
									c-1.19,4.43-2.06,8.74-3.28,12.55c-0.61,1.91-1.28,3.69-2.04,5.31c-0.76,1.62-1.62,3.03-2.2,4.41
									c-0.58,1.37-0.9,2.71-0.78,3.87c0.11,1.17,0.52,2.13,1.01,2.79c0.49,0.67,1.05,1.02,1.44,1.21
									C170.9,409.98,171.13,410.01,171.13,410.04z"/>
							</g>
						</g>
					</g>
				</g>
				<g>
					<g>
						<g>
							<path class="st9" d="M132.77,388.33c-0.14-0.02,0.24-3.9,0.86-8.67c0.62-4.77,1.23-8.62,1.37-8.6
								c0.14,0.02-0.24,3.9-0.86,8.67C133.53,384.5,132.92,388.35,132.77,388.33z"/>
						</g>
					</g>
				</g>
				<g>
					<g>
						<g>
							<g>
								<path class="st16" d="M117.23,403.18l-1.84,14.44l-22.02-18.77l-12.04,2.91c0,0,12.42,26.07,22.23,36.4
									s15.1,11.8,18.8,11.96c5.09,0.22,7.41-5.97,7.41-5.97l2.22-35.89L117.23,403.18z"/>
							</g>
						</g>
						<g>
							<g>
								<g>
									<path class="st17" d="M115.48,417.24c0.12-0.06,0.98,1.5,1.55,3.6c0.58,2.1,0.65,3.87,0.52,3.88
										c-0.15,0.02-0.45-1.69-1.02-3.75C115.97,418.92,115.34,417.3,115.48,417.24z"/>
								</g>
							</g>
						</g>
					</g>
					<g>
						<g>
							<g>
								<path class="st10" d="M91.25,362.26H74.67c-2.51,0-4.75,2.91-3.85,5.28L87.5,400c0.64,1.26,1.94,2.05,3.36,2.05l20.21-0.04
									c2.32-0.31,3.16-2.88,2.2-4.28l-16.08-31.78C96.07,363.69,93.77,362.26,91.25,362.26z"/>
							</g>
						</g>
						<g>
							<g>
								<path class="st9" d="M90.13,364.21H73.55c-2.08,0-3.42,2.19-2.48,4.03L87.35,400c0.64,1.26,1.94,2.05,3.36,2.05h19.98
									c1.22,0,2.01-1.28,1.46-2.37L96.06,367.9C94.95,365.64,92.65,364.21,90.13,364.21z"/>
							</g>
						</g>
					</g>
					<g>
						<g>
							<g>
								<path class="st16" d="M88.72,377.51l-10.09,4.03l-2.16,8.13l4.86,12.1l17.83,2.59l-5.22-5.34l0.67-4.65
									c0,0,4.97-1.56,5.1-2.32c0.12-0.76-0.62-3.31-1.38-3.44c-0.76-0.12-5.98,1.82-5.98,1.82s6.17-4.89,6-5.67
									c-0.17-0.79-0.84-2.79-2.07-3.02c-1.23-0.22-11.19,4.47-11.19,4.47l-1.62,3.69l-1.41-5.9
									C82.06,384.01,90.91,381.53,88.72,377.51z"/>
							</g>
						</g>
						<g>
							<g>
								<g>
									<path class="st17" d="M89.99,396.56c-0.06,0.02-0.25-0.35-0.34-1.01c-0.1-0.65-0.05-1.59,0.3-2.55
										c0.36-0.95,0.93-1.7,1.43-2.13c0.5-0.44,0.88-0.59,0.91-0.54c0.1,0.12-1.21,1.07-1.85,2.85
										C89.76,394.96,90.15,396.54,89.99,396.56z"/>
								</g>
							</g>
						</g>
						<g>
							<g>
								<g>
									<path class="st17" d="M85.2,394.8c-0.06-0.03,0.3-0.98,0.4-2.64c0.08-0.82,0.12-1.84,0.51-2.93
										c0.19-0.54,0.48-1.1,0.93-1.56c0.45-0.47,1.05-0.8,1.65-1.04c2.41-0.88,4.58-1.58,6.17-2.1c1.59-0.51,2.58-0.78,2.6-0.72
										c0.02,0.07-0.93,0.47-2.48,1.06c-1.55,0.6-3.73,1.37-6.1,2.23c-0.57,0.23-1.09,0.51-1.48,0.91
										c-0.39,0.39-0.66,0.88-0.84,1.37c-0.38,0.99-0.47,1.98-0.59,2.8C85.77,393.88,85.27,394.85,85.2,394.8z"/>
								</g>
							</g>
						</g>
						<g>
							<g>
								<g>
									<path class="st17" d="M82.88,392.98c-0.14-0.02-0.11-0.91,0.06-1.99c0.18-1.08,0.44-1.93,0.58-1.9
										c0.14,0.02,0.11,0.91-0.06,1.99C83.29,392.15,83.03,393,82.88,392.98z"/>
								</g>
							</g>
						</g>
					</g>
					<g>
						<g>
							<path class="st11" d="M82.61,370.34c0,1.17,0.95,2.11,2.11,2.11c1.17,0,2.11-0.95,2.11-2.11c0-1.17-0.95-2.11-2.11-2.11
								C83.56,368.22,82.61,369.17,82.61,370.34z"/>
						</g>
					</g>
				</g>
				<g>
					<g>
						<g>
							<path class="st17" d="M123.94,403.2c0.02-0.02,0.23,0.15,0.62,0.49c0.44,0.39,0.98,0.88,1.65,1.48
								c1.47,1.36,3.46,3.19,5.82,5.38l0.08,0.07l-0.01,0.11c-0.26,3.37-0.57,7.33-0.9,11.56c-0.46,6.2-0.81,11.82-1.01,15.89
								c-0.09,1.97-0.16,3.6-0.22,4.82c-0.04,1.14-0.08,1.77-0.12,1.77c-0.04,0-0.06-0.63-0.08-1.77c-0.02-1.14-0.01-2.79,0.05-4.83
								c0.1-4.08,0.4-9.71,0.86-15.91c0.31-4.25,0.65-8.22,0.98-11.56l0.07,0.18c-2.31-2.24-4.26-4.12-5.69-5.51
								c-0.63-0.63-1.15-1.15-1.57-1.57C124.1,403.42,123.92,403.22,123.94,403.2z"/>
						</g>
					</g>
				</g>
			</g>
		</g>
	</g>
</g>
<g id="Character_1">
	<g>
		<g>
			<g>
				<path class="st4" d="M291.06,148.94l-35.54-17.63c-11.92-25.98-38.14-44.03-68.59-44.03c-41.67,0-75.45,33.78-75.45,75.45
					s33.78,75.45,75.45,75.45c40.62,0,73.72-32.1,75.37-72.31L291.06,148.94z"/>
			</g>
		</g>
		<g>
			<g>
				<g>
					<g>
						<path class="st9" d="M255.13,80.66c0,1.08-0.88,1.96-1.96,1.96c-1.08,0-1.96-0.88-1.96-1.96c0-1.08,0.88-1.96,1.96-1.96
							C254.26,78.7,255.13,79.58,255.13,80.66z"/>
					</g>
				</g>
				<g>
					<g>
						<path class="st9" d="M262.98,80.66c0,1.08-0.88,1.96-1.96,1.96c-1.08,0-1.96-0.88-1.96-1.96c0-1.08,0.88-1.96,1.96-1.96
							C262.1,78.7,262.98,79.58,262.98,80.66z"/>
					</g>
				</g>
				<g>
					<g>
						<path class="st9" d="M270.8,79.68c0.54,0.94,0.22,2.14-0.72,2.68c-0.94,0.54-2.14,0.22-2.68-0.72s-0.22-2.14,0.72-2.68
							C269.06,78.42,270.26,78.74,270.8,79.68z"/>
					</g>
				</g>
			</g>
			<g>
				<g>
					<g>
						<path class="st9" d="M261.14,57.77c0-0.01,0.13-0.01,0.4-0.01c0.29,0.01,0.67,0.02,1.16,0.03c0.26,0.01,0.54,0.01,0.86,0.04
							c0.32,0.04,0.66,0.09,1.03,0.14c0.37,0.05,0.77,0.11,1.2,0.17c0.42,0.1,0.87,0.22,1.34,0.33c1.88,0.48,4.16,1.31,6.49,2.83
							c2.33,1.5,4.75,3.63,6.71,6.54c1.93,2.91,3.42,6.57,3.81,10.68c0.04,1.03,0.16,2.08,0.06,3.14c-0.04,0.53-0.03,1.07-0.1,1.61
							c-0.08,0.54-0.16,1.07-0.24,1.62c-0.44,2.14-1.08,4.34-2.18,6.39c-1.08,2.05-2.47,4-4.17,5.74c-1.73,1.7-3.76,3.18-6.01,4.32
							c-2.25,1.15-4.74,1.94-7.33,2.25c-0.64,0.13-1.3,0.13-1.95,0.17c-0.66,0.04-1.31,0.07-1.98,0.04
							c-1.32-0.05-2.65-0.22-3.96-0.5c-2.85-0.61-5.53-1.76-7.88-3.32l0.24,0.02c-2.73,1.1-5.41,2.17-8.03,3.22l-0.48,0.19
							l0.14-0.49c0.81-2.94,1.6-5.81,2.36-8.58l0.04,0.21c-2.25-2.99-3.69-6.41-4.28-9.8c-0.3-1.7-0.42-3.39-0.31-5.02
							c0.03-0.82,0.07-1.63,0.23-2.41c0.06-0.39,0.12-0.79,0.18-1.17c0.07-0.39,0.19-0.76,0.28-1.14c1.55-6.04,5.27-10.5,8.95-13.05
							c1.84-1.3,3.66-2.23,5.33-2.81c0.41-0.15,0.82-0.29,1.2-0.43c0.4-0.1,0.78-0.2,1.14-0.29c0.36-0.09,0.71-0.18,1.04-0.26
							c0.33-0.06,0.66-0.1,0.96-0.15c0.61-0.08,1.14-0.18,1.61-0.2c0.46-0.02,0.85-0.03,1.18-0.04c0.3-0.01,0.54-0.01,0.72-0.02
							C261.06,57.76,261.14,57.76,261.14,57.77s-0.08,0.02-0.24,0.03c-0.18,0.01-0.42,0.03-0.72,0.06
							c-0.32,0.02-0.71,0.05-1.17,0.08c-0.46,0.04-0.99,0.15-1.59,0.24c-2.36,0.43-5.9,1.37-9.52,4.02
							c-3.61,2.55-7.24,6.97-8.73,12.91c-0.09,0.37-0.2,0.74-0.27,1.12c-0.06,0.38-0.11,0.77-0.17,1.15
							c-0.15,0.77-0.18,1.56-0.21,2.37c-0.1,1.6,0.03,3.26,0.33,4.92c0.59,3.32,2.01,6.66,4.22,9.59l0.07,0.1l-0.03,0.12
							c-0.76,2.77-1.54,5.64-2.34,8.58l-0.34-0.3c2.61-1.05,5.29-2.13,8.02-3.23l0.13-0.05l0.11,0.07c2.3,1.51,4.92,2.65,7.7,3.24
							c1.28,0.27,2.58,0.44,3.87,0.49c0.65,0.03,1.29,0.01,1.93-0.04c0.64-0.04,1.28-0.04,1.91-0.16c2.53-0.3,4.97-1.07,7.17-2.19
							c2.21-1.11,4.19-2.55,5.89-4.21c1.67-1.7,3.04-3.61,4.1-5.61c1.09-2,1.72-4.15,2.16-6.25c0.08-0.53,0.16-1.06,0.24-1.58
							c0.08-0.52,0.07-1.05,0.11-1.57c0.1-1.04-0.02-2.07-0.05-3.08c-0.37-4.04-1.81-7.64-3.69-10.52c-1.91-2.87-4.28-5-6.57-6.5
							c-2.29-1.52-4.53-2.37-6.39-2.88c-0.47-0.12-0.91-0.24-1.32-0.35c-0.42-0.07-0.82-0.13-1.19-0.19
							c-0.37-0.06-0.71-0.12-1.02-0.17c-0.31-0.03-0.6-0.04-0.85-0.06c-0.49-0.04-0.87-0.06-1.16-0.08
							C261.27,57.79,261.14,57.78,261.14,57.77z"/>
					</g>
				</g>
			</g>
		</g>
		<g>
			<g>
				<g>
					<path class="st9" d="M232.62,154.68c0.14,0,0.15,7.09,0.01,15.82c-0.14,8.74-0.36,15.82-0.51,15.82
						c-0.14,0-0.15-7.09-0.01-15.82C232.25,161.76,232.48,154.68,232.62,154.68z"/>
				</g>
			</g>
		</g>
		<g>
			<g>
				<g>
					<g>
						<path class="st9" d="M203.55,117.23c0.02,0,0.01,0.18-0.03,0.52c-0.03,0.34-0.11,0.84-0.25,1.48c-0.28,1.27-0.89,3.1-2.1,5.11
							c-1.23,1.99-3.11,4.16-5.77,5.81c-2.64,1.66-6.07,2.64-9.67,2.54c-3.6-0.11-6.97-1.28-9.51-3.09
							c-2.56-1.79-4.31-4.07-5.43-6.13c-1.1-2.08-1.6-3.93-1.81-5.22c-0.1-0.65-0.16-1.15-0.17-1.49c-0.02-0.34-0.02-0.52,0-0.52
							c0.06,0,0.1,0.72,0.37,1.98c0.27,1.26,0.82,3.07,1.93,5.08c1.13,1.99,2.88,4.19,5.38,5.91c2.48,1.74,5.75,2.85,9.25,2.96
							c3.5,0.09,6.83-0.84,9.4-2.43c2.6-1.58,4.46-3.67,5.71-5.6c1.23-1.95,1.88-3.72,2.22-4.96
							C203.41,117.94,203.49,117.22,203.55,117.23z"/>
					</g>
				</g>
			</g>
			<g>
				<g>
					<g>
						<path class="st9" d="M142.5,156.82c0.14,0,0.26,6.91,0.27,15.43c0,8.52-0.11,15.43-0.25,15.43c-0.14,0-0.26-6.91-0.27-15.43
							C142.24,163.73,142.36,156.82,142.5,156.82z"/>
					</g>
				</g>
			</g>
			<g>
				<g>
					<g>
						<path class="st18" d="M142.4,225.81"/>
					</g>
				</g>
			</g>
			<g>
				<g>
					<g>
						<path class="st9" d="M172.03,114.46l29.7,0.01c0,0,26.85,9.54,35.58,16.24c8.73,6.69,22.12,53.84,22.12,53.84l-26.82-0.79
							l-2.01,40.49c-27.47,19.56-60.44,18.13-85.9,1.01l-1.99-38.33c0,0-14.79-0.43-22.34-0.66s-7.9-2.3-7.9-2.3
							s17.17-45.11,22.41-53.84C139.44,122.52,165.98,115.72,172.03,114.46"/>
					</g>
				</g>
				<g>
					<g>
						<g>
							<path class="st11" d="M243.47,141.5c0,0-0.34,0.26-1.06,0.62c-0.72,0.36-1.86,0.78-3.39,0.94c-1.53,0.17-3.44,0.07-5.56-0.45
								c-2.13-0.49-4.44-1.46-6.9-2.63c-2.47-1.15-5.13-2.54-8.21-3.36c-3.07-0.83-6.55-0.78-10.01,0.12
								c-3.47,0.88-6.91,2.5-10.34,4.37c-3.43,1.89-6.91,4.03-10.73,5.74c-3.81,1.7-7.88,2.83-11.87,2.63
								c-3.99-0.17-7.68-1.39-10.99-2.81c-3.33-1.43-6.33-3.11-9.19-4.55c-2.85-1.45-5.57-2.7-8.15-3.54
								c-5.17-1.72-9.73-1.61-12.65-0.84c-1.47,0.37-2.56,0.84-3.28,1.19c-0.36,0.17-0.62,0.34-0.8,0.43
								c-0.18,0.1-0.28,0.14-0.28,0.14c0-0.01,0.08-0.07,0.25-0.18c0.18-0.11,0.43-0.29,0.78-0.47c0.7-0.39,1.79-0.89,3.28-1.3
								c2.94-0.84,7.57-1.01,12.81,0.69c2.62,0.83,5.36,2.06,8.23,3.5c2.88,1.43,5.88,3.09,9.19,4.49c3.29,1.4,6.93,2.59,10.83,2.74
								c3.89,0.19,7.87-0.91,11.64-2.59c3.78-1.69,7.25-3.82,10.7-5.71c3.45-1.88,6.93-3.51,10.47-4.39
								c3.52-0.91,7.11-0.94,10.24-0.08c3.14,0.85,5.81,2.27,8.26,3.44c2.45,1.2,4.71,2.17,6.81,2.68c2.09,0.54,3.96,0.67,5.47,0.53
								c1.51-0.13,2.64-0.51,3.37-0.83C243.1,141.71,243.46,141.48,243.47,141.5z"/>
						</g>
					</g>
				</g>
				<g>
					<g>
						<g>
							<path class="st11" d="M253.22,164.1c-0.02,0.03-0.42-0.26-1.28-0.64c-0.85-0.38-2.15-0.87-3.92-1.07
								c-1.75-0.22-3.95-0.13-6.39,0.47c-2.44,0.59-5.08,1.78-7.83,3.37c-2.76,1.57-5.62,3.57-8.91,5.41
								c-3.27,1.79-7.08,3.51-11.39,3.61c-4.3,0.16-8.64-1.34-12.81-3.19c-4.2-1.83-8.43-4.06-13.14-5.15
								c-4.71-1.06-9.51-0.78-14-0.02c-4.51,0.75-8.75,1.98-12.83,3.06c-4.07,1.08-7.98,2.02-11.72,2.46
								c-3.73,0.44-7.28,0.42-10.44-0.2c-6.34-1.24-10.77-4.52-12.97-7.31c-1.15-1.38-1.73-2.67-2.14-3.51
								c-0.15-0.42-0.28-0.75-0.37-1c-0.08-0.23-0.12-0.34-0.11-0.35c0.1-0.06,0.51,1.98,2.77,4.73c2.21,2.72,6.62,5.91,12.88,7.08
								c3.11,0.58,6.62,0.59,10.31,0.13c3.7-0.46,7.59-1.4,11.65-2.49c4.06-1.08,8.32-2.33,12.86-3.1c4.52-0.78,9.39-1.06,14.2,0.01
								c4.8,1.11,9.05,3.36,13.23,5.19c4.15,1.85,8.41,3.32,12.59,3.18c4.18-0.08,7.94-1.75,11.19-3.51
								c3.27-1.8,6.15-3.79,8.93-5.35c2.78-1.58,5.45-2.76,7.94-3.33c2.48-0.58,4.71-0.64,6.49-0.39c1.78,0.23,3.09,0.76,3.94,1.17
								C252.84,163.78,253.22,164.1,253.22,164.1z"/>
						</g>
					</g>
				</g>
				<g>
					<g>
						<g>
							<path class="st11" d="M231.72,201.17c0,0-0.27,0.19-0.85,0.41c-0.58,0.22-1.48,0.43-2.67,0.42
								c-1.18-0.01-2.62-0.27-4.19-0.87c-1.57-0.59-3.23-1.52-5.08-2.47c-1.84-0.96-3.96-1.82-6.37-2.15
								c-2.4-0.37-5.03-0.31-7.73,0.12c-5.45,0.81-11.02,3.32-16.98,5.57c-2.99,1.12-5.99,2.04-8.96,2.6
								c-2.96,0.58-5.87,0.87-8.64,0.96c-5.55,0.15-10.53-0.6-14.58-1.64c-4.06-1.03-7.2-2.36-9.3-3.38
								c-1.07-0.48-1.84-0.95-2.39-1.24c-0.24-0.14-0.44-0.25-0.61-0.35c-0.14-0.08-0.2-0.13-0.2-0.13c0-0.01,0.08,0.02,0.22,0.09
								c0.17,0.08,0.38,0.18,0.63,0.3c0.56,0.26,1.35,0.7,2.42,1.15c2.12,0.96,5.26,2.24,9.3,3.21c4.04,0.98,8.98,1.69,14.48,1.51
								c2.74-0.1,5.62-0.4,8.55-0.98c2.94-0.57,5.9-1.48,8.88-2.59c5.93-2.23,11.55-4.75,17.09-5.55c2.75-0.42,5.42-0.46,7.87-0.07
								c2.46,0.36,4.64,1.27,6.48,2.25c1.85,0.98,3.48,1.92,5.01,2.52c1.53,0.61,2.93,0.89,4.09,0.93
								C230.55,201.88,231.71,201.08,231.72,201.17z"/>
						</g>
					</g>
				</g>
				<g>
					<g>
						<g>
							<path class="st11" d="M230.87,222.14c-0.05,0.05-0.8-1.07-2.64-2.56c-1.83-1.44-4.93-3.24-9.16-3.63
								c-2.09-0.21-4.43,0.01-6.77,0.8c-2.33,0.84-4.6,2.26-6.78,4c-2.19,1.74-4.33,3.78-6.71,5.72c-2.37,1.93-5.08,3.77-8.25,4.73
								c-3.17,0.94-6.44,0.99-9.49,0.6c-3.06-0.39-5.94-1.17-8.63-1.99c-5.39-1.65-10.08-3.61-14.16-4.76
								c-4.07-1.18-7.55-1.42-9.89-1.03c-2.34,0.36-3.53,0.99-3.56,0.91c0-0.01,0.07-0.05,0.22-0.11c0.18-0.07,0.39-0.17,0.66-0.28
								c0.29-0.13,0.65-0.26,1.1-0.37c0.44-0.13,0.96-0.27,1.55-0.35c2.36-0.46,5.9-0.26,10.02,0.88c4.13,1.11,8.82,3.04,14.2,4.66
								c2.68,0.81,5.54,1.57,8.55,1.94c3.01,0.38,6.21,0.33,9.28-0.59c3.08-0.93,5.73-2.71,8.08-4.62c2.36-1.92,4.52-3.95,6.74-5.7
								c2.21-1.75,4.54-3.19,6.94-4.04c2.41-0.8,4.81-1.01,6.95-0.76c4.31,0.45,7.43,2.33,9.25,3.84
								C230.18,220.98,230.87,222.14,230.87,222.14z"/>
						</g>
					</g>
				</g>
				<g class="st13">
					<g>
						<g>
							<path d="M141.78,218.18c6.03,0.47,11.4-3.58,15.87-7.65c4.48-4.07,9.15-8.6,15.14-9.46c6.27-0.9,12.65,2.5,18.86,1.25
								c2.8-0.56,5.41-2.04,8.26-2.15c4.7-0.18,8.64,3.31,12.02,6.58c4.4,4.25,8.79,8.5,13.19,12.75c1.35,1.3,3.91,3.25,5.6,2.44
								l0.33-6.57c-2.11-11.83-4.4-23.99-13.51-31.82c-6.76-5.81-15.96-7.81-24.82-8.82c-10.73-1.22-22.35-1.08-31.36,4.88
								c-6.01,3.97-10.25,10.2-13.03,16.85s-4.22,13.76-5.64,20.82"/>
						</g>
					</g>
				</g>
			</g>
			<g>
				<g>
					<g>
						<path class="st17" d="M257.24,184.48c0.26,1.56,4.59,26.54,3.81,31.48c-0.78,4.94-2.08,11.44-7.8,13.77
							c-5.72,2.34-14.03-0.78-18.71-8.84c-4.68-8.06-24.95-36.38-24.95-36.38l-15.07-1.82v-25.21l28.85,18.36l13.25,12.03
							l-1.01-4.03L257.24,184.48z"/>
					</g>
				</g>
				<g>
					<g>
						<path class="st10" d="M201.02,191.9h-22.76c-1.87,0-3.38-1.51-3.38-3.38v-41.06c0-1.87,1.51-3.38,3.38-3.38h22.76
							c1.87,0,3.38,1.51,3.38,3.38v41.06C204.4,190.39,202.88,191.9,201.02,191.9z"/>
					</g>
				</g>
				<g>
					<g>
						<g>
							<path class="st19" d="M222.09,175.2c0.1-0.11,6.37,5.31,14,12.1c7.64,6.79,13.75,12.39,13.66,12.5
								c-0.1,0.11-6.36-5.31-14.01-12.11C228.11,180.91,221.99,175.31,222.09,175.2z"/>
						</g>
					</g>
				</g>
				<g>
					<g>
						<g>
							<path class="st17" d="M116.39,185.89c0,0-3.6,31.05-3.6,34.59c0,3.54,3.18,12.03,12.03,12.74
								c8.84,0.71,20.17-19.1,20.17-19.1l18.4-27.95l-8.14-15.21l-15.91,15.86L116.39,185.89z"/>
						</g>
					</g>
					<g>
						<g>
							<path class="st17" d="M198.53,162.77l-23.82-0.66l-19.46,8.84l8.14,15.21l14.24-2.07c0,0,8.33-1.36,8.84-1.87
								c0.96-0.96,1.79-3.91,2.37-6.47c0.58-2.61,0.29-5.34-0.84-7.76l-0.54-0.46c0,0,7.84-1.64,9.14-2.21
								C199.72,163.95,198.53,162.77,198.53,162.77z"/>
						</g>
					</g>
					<g>
						<g>
							<g>
								<path class="st19" d="M155.24,170.96c0.03,0.02-0.31,0.43-0.93,1.13c-0.62,0.71-1.54,1.7-2.69,2.92
									c-2.3,2.44-5.56,5.74-9.2,9.34c-3.6,3.57-6.86,6.8-9.31,9.23c-1.13,1.13-2.08,2.08-2.81,2.81
									c-0.67,0.66-1.05,1.01-1.07,0.99c-0.03-0.02,0.31-0.43,0.93-1.13c0.62-0.71,1.54-1.7,2.69-2.92
									c2.3-2.44,5.56-5.74,9.21-9.34c3.6-3.57,6.86-6.8,9.31-9.23c1.13-1.13,2.08-2.08,2.81-2.81
									C154.84,171.29,155.22,170.93,155.24,170.96z"/>
							</g>
						</g>
					</g>
					<g>
						<g>
							<g>
								<path class="st19" d="M178.72,169.84c-0.09-0.09,1.7-1.57,4.45-2.1c2.74-0.56,4.97,0.13,4.92,0.24
									c-0.02,0.16-2.2-0.27-4.81,0.27C180.65,168.76,178.8,169.98,178.72,169.84z"/>
							</g>
						</g>
					</g>
					<g>
						<g>
							<g>
								<path class="st19" d="M189.43,172.5c-0.05,0.15-1.91-0.59-4.29-0.35c-2.38,0.2-4.08,1.26-4.15,1.12
									c-0.1-0.09,1.57-1.42,4.11-1.63C187.63,171.39,189.51,172.4,189.43,172.5z"/>
							</g>
						</g>
					</g>
					<g>
						<g>
							<g>
								<path class="st19" d="M187.93,176.89c-0.05,0.06-0.32-0.11-0.77-0.28c-0.45-0.17-1.1-0.28-1.82-0.19
									c-0.72,0.1-1.32,0.39-1.7,0.67c-0.39,0.28-0.6,0.51-0.66,0.47c-0.05-0.03,0.05-0.36,0.43-0.75c0.37-0.39,1.05-0.79,1.87-0.9
									c0.83-0.11,1.58,0.09,2.05,0.37C187.79,176.55,187.98,176.84,187.93,176.89z"/>
							</g>
						</g>
					</g>
				</g>
			</g>
			<g>
				<g>
					<g>
						<g>
							<g>
								<g>
									<g>
										<g>
											<g>
												<g>
													<g>
														<path class="st17" d="M187.76,129.41L187.76,129.41c7.9-0.46,14.04-7.03,13.97-14.94c-0.04-4.75-0.1-8.82-0.1-8.82
															s12.05-1.87,12.2-13.92c0.15-12.04-1.94-39.7-1.94-39.7l0,0c-13.94-5.99-30.04-3.97-42.06,5.29l-1.78,1.37l4.07,56.98
															C172.69,123.76,179.66,129.88,187.76,129.41z"/>
													</g>
												</g>
											</g>
										</g>
									</g>
								</g>
								<g>
									<g>
										<g>
											<g>
												<g>
													<g>
														<path class="st19" d="M201.65,105.47c0,0-7.61,0.62-15.7-4.46c0,0,3.71,8.67,15.73,7.58L201.65,105.47z"/>
													</g>
												</g>
											</g>
										</g>
									</g>
								</g>
							</g>
						</g>
					</g>
					<g>
						<g>
							<g>
								<g>
									<g>
										<g>
											<g>
												<path class="st17" d="M169.52,71.16c-0.21-0.09-8.28-2.45-8.01,5.79c0.26,8.23,8.48,6.27,8.48,6.04
													C170,82.75,169.52,71.16,169.52,71.16z"/>
											</g>
										</g>
									</g>
								</g>
							</g>
						</g>
						<g>
							<g>
								<g>
									<g>
										<g>
											<g>
												<g>
													<path class="st19" d="M167.38,79.95c-0.04-0.03-0.14,0.11-0.38,0.22c-0.23,0.12-0.64,0.2-1.07,0.06
														c-0.88-0.29-1.66-1.65-1.74-3.13c-0.05-0.75,0.09-1.47,0.34-2.07c0.23-0.61,0.61-1.04,1.04-1.14
														c0.43-0.11,0.75,0.14,0.86,0.37c0.12,0.23,0.07,0.39,0.11,0.41c0.02,0.02,0.17-0.14,0.1-0.48
														c-0.04-0.16-0.14-0.35-0.34-0.51c-0.2-0.15-0.5-0.23-0.8-0.18c-0.63,0.06-1.19,0.67-1.46,1.32
														c-0.31,0.66-0.47,1.47-0.42,2.31c0.11,1.66,1,3.18,2.21,3.49c0.58,0.13,1.06-0.06,1.31-0.26
														C167.37,80.15,167.41,79.96,167.38,79.95z"/>
												</g>
											</g>
										</g>
									</g>
								</g>
							</g>
						</g>
					</g>
					<g>
						<g>
							<g>
								<g>
									<g>
										<g>
											<g>
												<g>
													<g>
														<g>
															<g>
																<g>
																	<path class="st9" d="M207.94,72.34c0.03,0.91-0.71,1.68-1.66,1.74c-0.95,0.05-1.74-0.64-1.77-1.55
																		c-0.03-0.91,0.71-1.69,1.66-1.74C207.11,70.74,207.91,71.43,207.94,72.34z"/>
																</g>
															</g>
														</g>
													</g>
												</g>
											</g>
											<g>
												<g>
													<g>
														<g>
															<g>
																<g>
																	<g>
																		<path class="st9" d="M209.61,68.97c-0.21,0.22-1.52-0.74-3.37-0.74c-1.85-0.02-3.21,0.93-3.41,0.7
																			c-0.1-0.1,0.12-0.51,0.71-0.94c0.58-0.43,1.58-0.85,2.73-0.84c1.15,0.01,2.12,0.43,2.68,0.87
																			C209.52,68.46,209.71,68.87,209.61,68.97z"/>
																	</g>
																</g>
															</g>
														</g>
													</g>
												</g>
											</g>
										</g>
										<g>
											<g>
												<g>
													<g>
														<g>
															<g>
																<g>
																	<path class="st9" d="M189.39,72.55c0.03,0.91-0.71,1.68-1.66,1.74c-0.95,0.05-1.74-0.64-1.77-1.55
																		c-0.03-0.91,0.71-1.69,1.66-1.74C188.56,70.95,189.36,71.64,189.39,72.55z"/>
																</g>
															</g>
														</g>
													</g>
												</g>
											</g>
											<g>
												<g>
													<g>
														<g>
															<g>
																<g>
																	<g>
																		<path class="st9" d="M191.41,69.32c-0.21,0.22-1.52-0.74-3.37-0.74c-1.85-0.02-3.21,0.93-3.41,0.7
																			c-0.1-0.1,0.12-0.5,0.71-0.94c0.58-0.43,1.57-0.85,2.73-0.84c1.15,0.01,2.12,0.43,2.68,0.87
																			C191.32,68.81,191.52,69.22,191.41,69.32z"/>
																	</g>
																</g>
															</g>
														</g>
													</g>
												</g>
											</g>
										</g>
										<g>
											<g>
												<g>
													<g>
														<g>
															<g>
																<g>
																	<path class="st9" d="M198.13,83.04c-0.01-0.11,1.14-0.3,3.01-0.54c0.47-0.05,0.92-0.14,1-0.47
																		c0.11-0.34-0.09-0.85-0.32-1.4c-0.44-1.14-0.91-2.34-1.4-3.6c-1.94-5.12-3.35-9.34-3.14-9.41
																		c0.21-0.08,1.95,4.01,3.89,9.14c0.47,1.26,0.91,2.47,1.34,3.62c0.18,0.54,0.49,1.15,0.25,1.85
																		c-0.13,0.35-0.47,0.61-0.78,0.69c-0.3,0.09-0.57,0.1-0.8,0.11C199.3,83.14,198.14,83.15,198.13,83.04z"/>
																</g>
															</g>
														</g>
													</g>
												</g>
											</g>
										</g>
										<g>
											<g>
												<g>
													<g>
														<g>
															<g>
																<g>
																	<path class="st9" d="M192.68,84.32c0.3-0.02,0.3,1.99,2.02,3.42c1.72,1.43,3.86,1.21,3.87,1.49
																		c0.03,0.13-0.48,0.39-1.38,0.41c-0.89,0.03-2.18-0.25-3.23-1.13c-1.05-0.87-1.5-2.04-1.57-2.87
																		C192.32,84.81,192.55,84.31,192.68,84.32z"/>
																</g>
															</g>
														</g>
													</g>
												</g>
											</g>
										</g>
									</g>
								</g>
							</g>
							<g>
								<g>
									<g>
										<g>
											<g>
												<g>
													<path class="st12" d="M191.89,62.06c-0.18,0.5-2.03,0.26-4.2,0.53c-2.18,0.22-3.93,0.85-4.22,0.4
														c-0.13-0.22,0.18-0.69,0.88-1.18c0.7-0.49,1.82-0.95,3.13-1.09c1.3-0.14,2.5,0.06,3.29,0.39
														C191.57,61.43,191.97,61.82,191.89,62.06z"/>
												</g>
											</g>
										</g>
									</g>
								</g>
							</g>
							<g>
								<g>
									<g>
										<g>
											<g>
												<g>
													<path class="st12" d="M208.93,63.61c-0.33,0.42-1.6-0.02-3.13-0.04c-1.53-0.07-2.83,0.28-3.13-0.16
														c-0.13-0.21,0.07-0.63,0.64-1.03c0.56-0.4,1.49-0.72,2.55-0.69c1.05,0.03,1.97,0.41,2.5,0.85
														C208.89,62.98,209.07,63.41,208.93,63.61z"/>
												</g>
											</g>
										</g>
									</g>
								</g>
							</g>
						</g>
					</g>
				</g>
				<g>
					<g>
						<g>
							<g>
								<path class="st12" d="M217.75,44.42c0.13-1.49-0.43-3.1-1.64-3.97c-1.22-0.88-3.1-0.82-4.09,0.31
									c0.57-2.01-1.08-4.33-3.16-4.46c-1.96-0.12-3.64,1.36-5.54,1.88c-1.85,0.51-3.84,0.07-5.62-0.65
									c-1.78-0.72-3.45-1.71-5.25-2.37c-3.76-1.37-8.07-1.2-11.71,0.47c-3.64,1.67-6.58,4.82-7.99,8.57
									c-2.63-0.82-5.63,0.51-7.25,2.75c-1.62,2.23-2.04,5.16-1.72,7.9c0.22,1.85,0.75,3.64,1.38,5.4c0,0.15-0.02,0.31-0.01,0.46
									c0.12,6.62,0.87,14.4,3.7,14.44c4.92,0.08,3.75-9.2,3.75-9.2c6.04-2.34,3.79-11.39,5.3-12.76c1.51-1.37,4.67-4.57,17.33,1.9
									c4.91,2.51,11.45,2.43,15.01,1.62c0.1-0.02,0.21-0.04,0.31-0.06c0.02-0.01,0.05-0.01,0.07-0.01
									c0.04-0.01,0.07-0.03,0.1-0.04c1.14-0.3,2.23-0.74,3.25-1.38c1.15-0.73,2.19-1.71,2.67-2.97c0.49-1.27,0.3-2.85-0.69-3.77
									C216.89,47.3,217.63,45.92,217.75,44.42z"/>
							</g>
						</g>
					</g>
				</g>
			</g>
		</g>
	</g>
</g>
<g id="Device">
	<g>
		<g>
			<g>
				<g>
					<g>
						<g>
							<path class="st9" d="M464.86,444.2l-129.72-0.6c-15.6-0.07-28.19-12.77-28.13-28.38l1.37-325.2
								c0.07-15.61,12.78-28.21,28.39-28.14l129.72,0.6c15.6,0.07,28.19,12.77,28.13,28.38l-1.37,325.2
								C493.19,431.68,480.47,444.28,464.86,444.2z"/>
						</g>
						<g>
							<path class="st11" d="M466.32,73.71l-25.15-0.12c-3.37-0.02-6.12,2.83-6.13,6.36l-0.02,4.56c-0.01,3.53-2.76,6.37-6.13,6.36
								l-49.02-0.23c-3.37-0.02-6.09-2.89-6.08-6.41l0.02-4.56c0.01-3.53-2.71-6.4-6.08-6.41l-8.85-0.04l-22.01-0.1
								c-10.93-0.05-19.83,8.77-19.88,19.71l-1.34,317.42c-0.05,10.93,8.77,19.82,19.7,19.87l129.46,0.6
								c10.93,0.05,19.83-8.77,19.88-19.71l1.34-317.42C486.06,82.66,477.24,73.76,466.32,73.71z"/>
						</g>
					</g>
				</g>
			</g>
		</g>
		<g>
			<path class="st12" d="M347.32,123.9c0,3.44-2.79,6.22-6.22,6.22c-3.44,0-6.22-2.79-6.22-6.22c0-3.44,2.79-6.22,6.22-6.22
				C344.53,117.68,347.32,120.47,347.32,123.9z"/>
			<g>
				<path class="st12" d="M358.92,119.22h104.39c3.19,0,5.78,2.59,5.78,5.78v15.81c0,3.19-2.59,5.78-5.78,5.78h-93.5
					c-3.19,0-5.78-2.59-5.78-5.78v-16.99L358.92,119.22z"/>
				<g>
					<g>
						<g>
							<g>
								<path class="st5" d="M452.35,129.04c0,0.14-16.03,0.26-35.8,0.26c-19.77,0-35.8-0.12-35.8-0.26s16.02-0.26,35.8-0.26
									C436.32,128.78,452.35,128.89,452.35,129.04z"/>
							</g>
						</g>
					</g>
					<g>
						<g>
							<g>
								<path class="st5" d="M452.35,135.48c0,0.14-16.03,0.26-35.8,0.26c-19.77,0-35.8-0.12-35.8-0.26c0-0.14,16.02-0.26,35.8-0.26
									C436.32,135.22,452.35,135.34,452.35,135.48z"/>
							</g>
						</g>
					</g>
				</g>
			</g>
		</g>
		<g>
			<path class="st12" d="M347.32,276.96c0,3.44-2.79,6.22-6.22,6.22c-3.44,0-6.22-2.79-6.22-6.22c0-3.44,2.79-6.22,6.22-6.22
				C344.53,270.74,347.32,273.53,347.32,276.96z"/>
			<g>
				<path class="st12" d="M358.92,272.28h104.39c3.19,0,5.78,2.59,5.78,5.78v15.81c0,3.19-2.59,5.78-5.78,5.78h-93.5
					c-3.19,0-5.78-2.59-5.78-5.78v-16.99L358.92,272.28z"/>
				<g>
					<g>
						<g>
							<g>
								<path class="st5" d="M452.35,282.1c0,0.14-16.03,0.26-35.8,0.26c-19.77,0-35.8-0.12-35.8-0.26s16.02-0.26,35.8-0.26
									C436.32,281.84,452.35,281.95,452.35,282.1z"/>
							</g>
						</g>
					</g>
					<g>
						<g>
							<g>
								<path class="st5" d="M452.35,288.54c0,0.14-16.03,0.26-35.8,0.26c-19.77,0-35.8-0.12-35.8-0.26c0-0.14,16.02-0.26,35.8-0.26
									C436.32,288.28,452.35,288.4,452.35,288.54z"/>
							</g>
						</g>
					</g>
				</g>
			</g>
		</g>
		<g>
			<circle class="st10" cx="456.57" cy="171.72" r="6.11"/>
			<g>
				<path class="st10" d="M441.82,163.14h-97.77c-2.99,0-5.41,2.42-5.41,5.41v14.81c0,2.99,2.42,5.41,5.41,5.41h87.57
					c2.99,0,5.41-2.42,5.41-5.41v-15.91L441.82,163.14z"/>
				<g>
					<g>
						<g>
							<g>
								<path class="st5" d="M354.32,172.33c0-0.14,15.01-0.26,33.53-0.26c18.52,0,33.53,0.12,33.53,0.26
									c0,0.14-15.01,0.26-33.53,0.26C369.33,172.59,354.32,172.47,354.32,172.33z"/>
							</g>
						</g>
					</g>
					<g>
						<g>
							<g>
								<path class="st5" d="M354.32,178.37c0-0.14,15.01-0.26,33.53-0.26c18.52,0,33.53,0.12,33.53,0.26s-15.01,0.26-33.53,0.26
									C369.33,178.63,354.32,178.51,354.32,178.37z"/>
							</g>
						</g>
					</g>
				</g>
			</g>
		</g>
		<g>
			<path class="st9" d="M334.88,214.81c0,3.44,2.79,6.22,6.22,6.22c3.44,0,6.22-2.79,6.22-6.22c0-3.44-2.79-6.22-6.22-6.22
				C337.66,208.59,334.88,211.37,334.88,214.81z"/>
			<g>
				<path class="st9" d="M362.8,205.8h97.77c2.99,0,5.41,2.42,5.41,5.41v14.81c0,2.99-2.42,5.41-5.41,5.41h-87.57
					c-2.99,0-5.41-2.42-5.41-5.41v-15.91L362.8,205.8z"/>
				<g>
					<g>
						<g>
							<g>
								<path class="st5" d="M450.31,214.99c0,0.14-15.01,0.26-33.53,0.26c-18.52,0-33.53-0.12-33.53-0.26
									c0-0.14,15.01-0.26,33.53-0.26C435.3,214.73,450.31,214.85,450.31,214.99z"/>
							</g>
						</g>
					</g>
					<g>
						<g>
							<g>
								<path class="st5" d="M450.31,221.03c0,0.14-15.01,0.26-33.53,0.26c-18.52,0-33.53-0.12-33.53-0.26
									c0-0.14,15.01-0.26,33.53-0.26C435.3,220.77,450.31,220.88,450.31,221.03z"/>
							</g>
						</g>
					</g>
				</g>
			</g>
			<g>
				<g>
					<g>
						<path class="st9" d="M458.11,260.08h-23.59c-2.21,0-3.99-1.79-3.99-3.99v-8.53c0-2.21,1.79-3.99,3.99-3.99h23.59
							c2.21,0,3.99,1.79,3.99,3.99v8.53C462.11,258.29,460.32,260.08,458.11,260.08z"/>
					</g>
				</g>
				<g>
					<g>
						<g>
							<path class="st5" d="M456.48,251.82c0,0.14-4.15,0.26-9.27,0.26c-5.12,0-9.27-0.12-9.27-0.26c0-0.14,4.15-0.26,9.27-0.26
								C452.33,251.56,456.48,251.68,456.48,251.82z"/>
						</g>
					</g>
				</g>
			</g>
		</g>
		<g>
			<g>
				<g>
					<rect x="327.59" y="353.34" class="st4" width="15.46" height="15.46"/>
				</g>
			</g>
			<g>
				<g>
					<rect x="345.98" y="353.34" class="st4" width="15.46" height="15.46"/>
				</g>
			</g>
			<g>
				<g>
					<rect x="364.37" y="353.34" class="st4" width="15.46" height="15.46"/>
				</g>
			</g>
			<g>
				<g>
					<rect x="382.76" y="353.34" class="st4" width="15.46" height="15.46"/>
				</g>
			</g>
			<g>
				<g>
					<rect x="401.15" y="353.34" class="st4" width="15.46" height="15.46"/>
				</g>
			</g>
			<g>
				<g>
					<rect x="327.59" y="391.48" class="st4" width="16.16" height="16.16"/>
				</g>
			</g>
			<g>
				<g>
					<rect x="346.81" y="391.52" class="st4" width="77.97" height="16.16"/>
				</g>
			</g>
			<g>
				<g>
					<g>
						<path class="st9" d="M471.98,348.84c0,0-0.01-0.4-0.02-1.17c-0.01-0.78-0.02-1.92-0.03-3.41c-0.02-3.01-0.04-7.44-0.07-13.22
							l0.12,0.12c-26.14,0.03-81.02,0.08-144.39,0.14h-0.01l0.26-0.26c0,6.1,0,12.12,0,17.8l-0.26-0.26
							c40.62,0.04,76.69,0.08,102.6,0.11c12.97,0.03,23.4,0.06,30.6,0.08c3.59,0.02,6.38,0.03,8.28,0.04
							c0.94,0.01,1.66,0.01,2.16,0.02C471.72,348.83,471.98,348.84,471.98,348.84s-0.23,0.01-0.71,0.02c-0.49,0-1.2,0.01-2.12,0.02
							c-1.89,0.01-4.66,0.02-8.23,0.04c-7.19,0.02-17.6,0.04-30.54,0.08c-25.97,0.03-62.09,0.07-102.79,0.11l-0.26,0v-0.26
							c0-5.68,0-11.7,0-17.8l0-0.26h0.26h0.01c63.37,0.06,118.25,0.12,144.39,0.14l0.12,0l0,0.12c-0.03,5.8-0.05,10.26-0.07,13.28
							c-0.01,1.48-0.02,2.61-0.03,3.39C472,348.47,471.98,348.84,471.98,348.84z"/>
					</g>
				</g>
			</g>
			<g>
				<g>
					<g>
						<path class="st12" d="M461.94,341.56h-0.74c-0.82,0-1.48-0.66-1.48-1.48v-4.39c0-0.82,0.66-1.48,1.48-1.48h0.74
							c0.82,0,1.48,0.66,1.48,1.48v4.39C463.42,340.89,462.75,341.56,461.94,341.56z"/>
					</g>
				</g>
				<g>
					<g>
						<g>
							<path class="st12" d="M466.05,340.1c0,0.05-0.43,0.11-1.18,0.15l0.15-0.14c-0.04,0.62-0.2,1.45-0.75,2.29
								c-0.28,0.41-0.67,0.81-1.19,1.07c-0.51,0.27-1.12,0.35-1.72,0.33c-1.18-0.02-2.19-0.73-2.73-1.5
								c-0.55-0.78-0.8-1.55-0.91-2.17l0.15,0.13c-0.86-0.04-1.36-0.1-1.36-0.16c0-0.06,0.5-0.11,1.36-0.16l0.12-0.01l0.04,0.13
								c0.15,0.54,0.45,1.27,0.97,1.95c0.52,0.67,1.36,1.24,2.39,1.26c0.52,0.02,1.04-0.05,1.47-0.26c0.43-0.21,0.77-0.53,1.03-0.88
								c0.51-0.71,0.73-1.49,0.83-2.05l0.03-0.14l0.12,0.01C465.62,340,466.05,340.05,466.05,340.1z"/>
						</g>
					</g>
				</g>
				<g>
					<g>
						<g>
							<path class="st12" d="M461.57,343.55c0.14,0,0.26,0.51,0.26,1.13c0,0.63-0.12,1.13-0.26,1.13s-0.26-0.51-0.26-1.13
								C461.31,344.06,461.42,343.55,461.57,343.55z"/>
						</g>
					</g>
				</g>
			</g>
			<g>
				<g>
					<rect x="427.42" y="391.48" class="st4" width="16.16" height="16.16"/>
				</g>
			</g>
			<g>
				<g>
					<rect x="446.64" y="391.48" class="st12" width="25.34" height="16.16"/>
				</g>
			</g>
			<g>
				<g>
					<rect x="419.74" y="353.34" class="st4" width="15.46" height="15.46"/>
				</g>
			</g>
			<g>
				<g>
					<rect x="438.13" y="353.34" class="st4" width="15.46" height="15.46"/>
				</g>
			</g>
			<g>
				<g>
					<rect x="456.52" y="353.34" class="st4" width="15.46" height="15.46"/>
				</g>
			</g>
			<g>
				<g>
					<rect x="327.59" y="372.41" class="st4" width="15.46" height="15.46"/>
				</g>
			</g>
			<g>
				<g>
					<rect x="345.98" y="372.41" class="st4" width="15.46" height="15.46"/>
				</g>
			</g>
			<g>
				<g>
					<rect x="364.37" y="372.41" class="st4" width="15.46" height="15.46"/>
				</g>
			</g>
			<g>
				<g>
					<rect x="382.76" y="372.41" class="st4" width="15.46" height="15.46"/>
				</g>
			</g>
			<g>
				<g>
					<rect x="401.15" y="372.41" class="st4" width="15.46" height="15.46"/>
				</g>
			</g>
			<g>
				<g>
					<rect x="419.74" y="372.41" class="st4" width="15.46" height="15.46"/>
				</g>
			</g>
			<g>
				<g>
					<rect x="438.13" y="372.41" class="st4" width="15.46" height="15.46"/>
				</g>
			</g>
			<g>
				<g>
					<rect x="456.52" y="372.41" class="st4" width="15.46" height="15.46"/>
				</g>
			</g>
		</g>
		<g>
			<g>
				<path class="st12" d="M396.85,317.67c-0.01,1.46-1.21,2.64-2.68,2.63c-1.48-0.01-2.67-1.2-2.66-2.66
					c0.01-1.46,1.21-2.64,2.68-2.63C395.66,315.02,396.85,316.21,396.85,317.67z"/>
			</g>
			<g>
				<path class="st12" d="M405.12,317.71c-0.01,1.46-1.21,2.64-2.68,2.63c-1.48-0.01-2.67-1.2-2.66-2.66
					c0.01-1.46,1.21-2.64,2.68-2.63C403.94,315.06,405.13,316.25,405.12,317.71z"/>
			</g>
			<g>
				<path class="st12" d="M413.4,317.75c-0.01,1.46-1.21,2.64-2.68,2.63c-1.48-0.01-2.67-1.2-2.66-2.66
					c0.01-1.46,1.21-2.64,2.68-2.63S413.4,316.29,413.4,317.75z"/>
			</g>
		</g>
	</g>
</g>
</svg>
